<?xml version="1.0" encoding="UTF-8" standalone="no"?>
<svg
   xmlns:dc="http://purl.org/dc/elements/1.1/"
   xmlns:cc="http://creativecommons.org/ns#"
   xmlns:rdf="http://www.w3.org/1999/02/22-rdf-syntax-ns#"
   xmlns:svg="http://www.w3.org/2000/svg"
   xmlns="http://www.w3.org/2000/svg"
   xmlns:xlink="http://www.w3.org/1999/xlink"
   id="svg8"
   version="1.1"
   viewBox="0 0 320.11792 145.04779"
   height="548.2121"
   width="1209.8945">
  <defs
     id="defs2">
    <clipPath
       clipPathUnits="userSpaceOnUse"
       id="clipEmfPath1">
      <path
         d="M 3.6674174,3.6674174 H 418.56394 V 221.95848 H 3.6674174 Z"
         id="path861" />
    </clipPath>
    <pattern
       id="EMFhbasepattern"
       patternUnits="userSpaceOnUse"
       width="6"
       height="6"
       x="0"
       y="0" />
    <clipPath
       clipPathUnits="userSpaceOnUse"
       id="clipEmfPath1-8">
      <path
         d="M 3.6674174,3.6674174 H 418.56394 V 221.95848 H 3.6674174 Z"
         id="path861-2" />
    </clipPath>
  </defs>
  <metadata
     id="metadata5">
    <rdf:RDF>
      <cc:Work
         rdf:about="">
        <dc:format>image/svg+xml</dc:format>
        <dc:type
           rdf:resource="http://purl.org/dc/dcmitype/StillImage" />
        <dc:title></dc:title>
      </cc:Work>
    </rdf:RDF>
  </metadata>
  <image
     xlink:href="fig_07.png"
     y="3.2311261"
     x="0"
     id="image47"
     preserveAspectRatio="none"
     height="141.81667"
     width="318.55835" />
  <rect
     style="fill:none;fill-opacity:1;stroke:#f30000;stroke-width:0.505566;stroke-miterlimit:4;stroke-dasharray:none;stroke-dashoffset:0;stroke-opacity:1"
     id="rect848"
     width="22.842196"
     height="8.7368851"
     x="10.824216"
     y="44.854431"
     ry="2.357573" />
  <path
     transform="matrix(0.11654302,0,0,0.08534982,21.635744,26.205347)"
     style="fill:#ffffff;fill-opacity:1;stroke:#000000;stroke-width:4.82778692;stroke-linecap:butt;stroke-linejoin:miter;stroke-miterlimit:8;stroke-dasharray:none;stroke-opacity:1"
     clip-path="url(#clipEmfPath1)"
     d="M 5.0227672,34.840465 C 5.0227672,18.37695 18.37695,5.0227672 34.840465,5.0227672 H 245.47778 v 0 h 103.04646 38.86665 c 16.50338,0 29.8177,13.3541828 29.8177,29.8176978 v 74.544245 0 44.72655 0 c 0,16.50337 -13.31432,29.81769 -29.8177,29.81769 h -187.3564 l -96.80503,34.57293 16.89983,-34.57293 H 34.840465 c -16.463515,0 -29.8176978,-13.31432 -29.8176978,-29.81769 v 0 -44.72655 0 z"
     id="path869" />
  <text
     xml:space="preserve"
     style="font-style:normal;font-weight:normal;font-size:13.81666851px;line-height:1.25;font-family:sans-serif;letter-spacing:0px;word-spacing:0px;fill:#000000;fill-opacity:1;stroke:none;stroke-width:0.34541669"
     x="26.223042"
     y="37.431461"
     id="text888"><tspan
       id="tspan886"
       x="26.223042"
       y="37.431461"
       style="font-size:8.29000092px;stroke-width:0.34541669">①クリック</tspan></text>
  <rect
     style="fill:none;fill-opacity:1;stroke:#f30000;stroke-width:1.01358294;stroke-miterlimit:4;stroke-dasharray:none;stroke-dashoffset:0;stroke-opacity:1"
     id="rect848-6"
     width="89.853546"
     height="8.9273396"
     x="229.75758"
     y="45.0742"
     ry="2.4089658" />
  <path
     style="fill:#ffffff;fill-opacity:1;stroke:#000000;stroke-width:0.41158214;stroke-linecap:butt;stroke-linejoin:miter;stroke-miterlimit:8;stroke-dasharray:none;stroke-opacity:1"
     clip-path="none"
     d="m 186.82576,30.268277 c 0,-1.40918 1.13394,-2.55222 2.53191,-2.55222 h 17.8858 v 0 h 8.74996 3.30028 c 1.40135,0 2.5319,1.14304 2.5319,2.55222 v 6.38054 0 3.82833 0 c 0,1.41259 -1.13055,2.55222 -2.5319,2.55222 h -0.71062 l 11.17457,4.69068 -17.95954,-4.69068 h -22.44045 c -1.39797,0 -2.53191,-1.13963 -2.53191,-2.55222 v 0 -3.82833 0 z"
     id="path869-5" />
  <text
     xml:space="preserve"
     style="font-style:normal;font-weight:normal;font-size:13.81666851px;line-height:1.25;font-family:sans-serif;letter-spacing:0px;word-spacing:0px;fill:#000000;fill-opacity:1;stroke:none;stroke-width:0.34541669"
     x="190.84819"
     y="38.539734"
     id="text888-6"><tspan
       id="tspan886-4"
       x="190.84819"
       y="38.539734"
       style="font-size:8.29000092px;stroke-width:0.34541669">③編集</tspan></text>
  <rect
     style="fill:none;fill-opacity:1;stroke:#f30000;stroke-width:0.505566;stroke-miterlimit:4;stroke-dasharray:none;stroke-dashoffset:0;stroke-opacity:1"
     id="rect848-0"
     width="22.842196"
     height="8.7368851"
     x="228.71638"
     y="18.631079"
     ry="2.357573" />
  <path
     transform="matrix(0.11654302,0,0,0.08534982,228.28905,-0.31301341)"
     style="fill:#ffffff;fill-opacity:1;stroke:#000000;stroke-width:4.82778692;stroke-linecap:butt;stroke-linejoin:miter;stroke-miterlimit:8;stroke-dasharray:none;stroke-opacity:1"
     clip-path="url(#clipEmfPath1-8)"
     d="M 5.0227672,34.840465 C 5.0227672,18.37695 18.37695,5.0227672 34.840465,5.0227672 H 245.47778 v 0 h 103.04646 38.86665 c 16.50338,0 29.8177,13.3541828 29.8177,29.8176978 v 74.544245 0 44.72655 0 c 0,16.50337 -13.31432,29.81769 -29.8177,29.81769 h -187.3564 l -96.80503,34.57293 16.89983,-34.57293 H 34.840465 c -16.463515,0 -29.8176978,-13.31432 -29.8176978,-29.81769 v 0 -44.72655 0 z"
     id="path869-8" />
  <text
     xml:space="preserve"
     style="font-style:normal;font-weight:normal;font-size:13.81666851px;line-height:1.25;font-family:sans-serif;letter-spacing:0px;word-spacing:0px;fill:#000000;fill-opacity:1;stroke:none;stroke-width:0.34541669"
     x="232.87627"
     y="10.913132"
     id="text888-5"><tspan
       id="tspan886-8"
       x="232.87627"
       y="10.913132"
       style="font-size:8.29000092px;stroke-width:0.34541669">②クリック</tspan></text>
</svg>
