<?xml version="1.0" encoding="UTF-8" standalone="no"?>
<svg
   xmlns:dc="http://purl.org/dc/elements/1.1/"
   xmlns:cc="http://creativecommons.org/ns#"
   xmlns:rdf="http://www.w3.org/1999/02/22-rdf-syntax-ns#"
   xmlns:svg="http://www.w3.org/2000/svg"
   xmlns="http://www.w3.org/2000/svg"
   xmlns:xlink="http://www.w3.org/1999/xlink"
   id="svg8"
   version="1.1"
   viewBox="0 0 965.99816 592.99997"
   height="592.99884"
   width="965.99817">
  <defs
     id="defs2" />
  <metadata
     id="metadata5">
    <rdf:RDF>
      <cc:Work
         rdf:about="">
        <dc:format>image/svg+xml</dc:format>
        <dc:type
           rdf:resource="http://purl.org/dc/dcmitype/StillImage" />
        <dc:title></dc:title>
      </cc:Work>
    </rdf:RDF>
  </metadata>
  <g
     transform="translate(-3.1541625e-4,384.07999)"
     id="layer1">
    <image
       xlink:href="fig_01_01.png"
       width="966"
       height="593"
       preserveAspectRatio="none"
       id="image823"
       x="0"
       y="-384.07999" />
    <flowRoot
       transform="matrix(0.26458333,0,0,0.26458333,11.496524,27.015234)"
       style="font-style:normal;font-weight:normal;font-size:40px;line-height:1.25;font-family:sans-serif;letter-spacing:0px;word-spacing:0px;fill:#000000;fill-opacity:1;stroke:none"
       id="flowRoot38"
       xml:space="preserve"><flowRegion
         id="flowRegion40"><rect
           y="124.36342"
           x="-55"
           height="129.28572"
           width="412.14285"
           id="rect42" /></flowRegion><flowPara
         id="flowPara44" /></flowRoot>    <rect
       ry="11.879162"
       y="-263.73166"
       x="802.84332"
       height="44.022747"
       width="143.47786"
       id="rect848"
       style="fill:none;fill-opacity:1;stroke:#f30000;stroke-width:2.84421062;stroke-miterlimit:4;stroke-dasharray:none;stroke-dashoffset:0;stroke-opacity:1" />
    <path
       id="path869-4"
       d="m 129.73539,-115.45969 c 0,4.66293 5.53446,8.4452 12.35755,8.4452 h 87.29576 v 0 h 42.70624 16.10773 c 6.83962,0 12.35756,-3.78227 12.35756,-8.4452 v -21.11299 0 -12.66785 0 c 0,-4.67419 -5.51794,-8.44511 -12.35756,-8.44511 H 272.404 l -123.28609,-68.2727 90.17047,68.2727 h -97.19544 c -6.82309,0 -12.35755,3.77092 -12.35755,8.44511 v 0 12.66785 0 z"
       clip-path="none"
       style="fill:#ffffff;fill-opacity:1;stroke:#000000;stroke-width:1.65404451;stroke-linecap:butt;stroke-linejoin:miter;stroke-miterlimit:8;stroke-dasharray:none;stroke-opacity:1" />
    <text
       id="text888-0"
       y="-122.43555"
       x="139.7728"
       style="font-style:normal;font-variant:normal;font-weight:normal;font-stretch:normal;font-size:30.69151306px;line-height:1.25;font-family:sans-serif;-inkscape-font-specification:'sans-serif, Normal';font-variant-ligatures:normal;font-variant-caps:normal;font-variant-numeric:normal;font-feature-settings:normal;text-align:start;letter-spacing:0px;word-spacing:0px;writing-mode:lr-tb;text-anchor:start;fill:#000000;fill-opacity:1;stroke:none;stroke-width:2.09260297"
       xml:space="preserve"><tspan
         style="stroke-width:2.09260297"
         y="-122.43555"
         x="139.7728"
         id="tspan33">①クリック</tspan></text>
    <rect
       ry="8.856288"
       y="-258.77869"
       x="45.311493"
       height="32.820339"
       width="103.80649"
       id="rect848-9"
       style="fill:none;fill-opacity:1;stroke:#f30000;stroke-width:2.08888507;stroke-miterlimit:4;stroke-dasharray:none;stroke-dashoffset:0;stroke-opacity:1" />
    <path
       id="path869-4-9"
       d="m 698.22447,-141.77276 c 0,4.66294 5.53446,8.44517 12.35755,8.44517 h 87.29577 v 0 h 42.70624 16.10773 c 6.83962,0 12.35756,-3.78223 12.35756,-8.44517 v -21.11305 0 -12.66785 0 c 0,-4.67417 -5.51794,-8.44513 -12.35756,-8.44513 h -15.79867 l -4.45612,-36.13642 -28.6595,36.13642 h -97.19545 c -6.82309,0 -12.35755,3.77096 -12.35755,8.44513 v 0 12.66785 0 z"
       clip-path="none"
       style="fill:#ffffff;fill-opacity:1;stroke:#000000;stroke-width:1.65404451;stroke-linecap:butt;stroke-linejoin:miter;stroke-miterlimit:8;stroke-dasharray:none;stroke-opacity:1" />
    <text
       id="text888-0-5"
       y="-148.74849"
       x="708.2619"
       style="font-style:normal;font-variant:normal;font-weight:normal;font-stretch:normal;font-size:30.69151306px;line-height:1.25;font-family:sans-serif;-inkscape-font-specification:'sans-serif, Normal';font-variant-ligatures:normal;font-variant-caps:normal;font-variant-numeric:normal;font-feature-settings:normal;text-align:start;letter-spacing:0px;word-spacing:0px;writing-mode:lr-tb;text-anchor:start;fill:#000000;fill-opacity:1;stroke:none;stroke-width:2.09260297"
       xml:space="preserve"><tspan
         y="-148.74849"
         x="708.2619"
         id="tspan33-1"
         style="stroke-width:2.09260297">②クリック</tspan></text>
  </g>
</svg>
