<?xml version="1.0" encoding="UTF-8" standalone="no"?>
<svg
   xmlns:dc="http://purl.org/dc/elements/1.1/"
   xmlns:cc="http://creativecommons.org/ns#"
   xmlns:rdf="http://www.w3.org/1999/02/22-rdf-syntax-ns#"
   xmlns:svg="http://www.w3.org/2000/svg"
   xmlns="http://www.w3.org/2000/svg"
   xmlns:xlink="http://www.w3.org/1999/xlink"
   id="svg8"
   version="1.1"
   viewBox="0 0 134.93748 127.29665"
   height="481.12112"
   width="509.99997">
  <defs
     id="defs2" />
  <metadata
     id="metadata5">
    <rdf:RDF>
      <cc:Work
         rdf:about="">
        <dc:format>image/svg+xml</dc:format>
        <dc:type
           rdf:resource="http://purl.org/dc/dcmitype/StillImage" />
        <dc:title></dc:title>
      </cc:Work>
    </rdf:RDF>
  </metadata>
  <image
     xlink:href="fig_10_01.png"
     y="-5.5511151e-17"
     x="2.7755576e-17"
     id="image871"
     preserveAspectRatio="none"
     height="115.8875"
     width="134.9375" />
  <flowRoot
     xml:space="preserve"
     id="flowRoot38"
     style="font-style:normal;font-weight:normal;font-size:40px;line-height:1.25;font-family:sans-serif;letter-spacing:0px;word-spacing:0px;fill:#000000;fill-opacity:1;stroke:none"
     transform="matrix(0.26458333,0,0,0.26458333,31.027902,56.403244)"><flowRegion
       id="flowRegion40"><rect
         id="rect42"
         width="412.14285"
         height="129.28572"
         x="-55"
         y="124.36342" /></flowRegion><flowPara
       id="flowPara44" /></flowRoot>  <rect
     style="fill:none;fill-opacity:1;stroke:#f30000;stroke-width:0.18765599;stroke-miterlimit:4;stroke-dasharray:none;stroke-dashoffset:0;stroke-opacity:1"
     id="rect848"
     width="5.7364507"
     height="4.7931409"
     x="89.352028"
     y="65.0047"
     ry="1.2933879" />
  <path
     style="fill:#ffffff;fill-opacity:1;stroke:#000000;stroke-width:0.36850125;stroke-linecap:butt;stroke-linejoin:miter;stroke-miterlimit:8;stroke-dasharray:none;stroke-opacity:1"
     clip-path="none"
     d="m 86.994046,52.022387 c 0,-1.16375 1.100684,-2.1077 2.45765,-2.1077 h 17.361214 v 0 h 8.49334 3.20348 c 1.36025,0 2.45765,0.94395 2.45765,2.1077 v 5.26924 0 3.16155 0 c 0,1.16656 -1.0974,2.10769 -2.45765,2.10769 h -15.44237 l -7.978883,2.44383 1.39292,-2.44383 h -7.029701 c -1.356966,0 -2.45765,-0.94113 -2.45765,-2.10769 v 0 -3.16155 0 z"
     id="path869" />
  <text
     xml:space="preserve"
     style="font-style:normal;font-variant:normal;font-weight:normal;font-stretch:normal;font-size:4.23333311px;line-height:1.25;font-family:sans-serif;-inkscape-font-specification:'sans-serif, Normal';font-variant-ligatures:normal;font-variant-caps:normal;font-variant-numeric:normal;font-feature-settings:normal;text-align:start;letter-spacing:0px;word-spacing:0px;writing-mode:lr-tb;text-anchor:start;fill:#000000;fill-opacity:1;stroke:none;stroke-width:0.26458332"
     x="88.47847"
     y="55.077053"
     id="text888"><tspan
       id="tspan37"
       x="88.47847"
       y="55.077053">①ターゲットの</tspan><tspan
       id="tspan39"
       x="88.47847"
       y="60.67371">◎印をクリック</tspan></text>
  <rect
     style="fill:none;fill-opacity:1;stroke:#f30000;stroke-width:0.40531778;stroke-miterlimit:4;stroke-dasharray:none;stroke-dashoffset:0;stroke-opacity:1"
     id="rect848-6"
     width="17.792595"
     height="7.2092595"
     x="82.900543"
     y="108.7843"
     ry="1.9453568" />
  <path
     style="fill:#ffffff;fill-opacity:1;stroke:#000000;stroke-width:0.34074911;stroke-linecap:butt;stroke-linejoin:miter;stroke-miterlimit:8;stroke-dasharray:none;stroke-opacity:1"
     clip-path="none"
     d="m 107.48569,125.73465 c 0,0.76836 -1.42543,1.39162 -3.18273,1.39162 H 81.819603 v 0 H 70.820437 66.671853 c -1.761566,0 -3.182724,-0.62326 -3.182724,-1.39162 v -3.47905 0 -2.08743 0 c 0,-0.77023 1.421158,-1.39162 3.182724,-1.39162 h 1.655244 l 14.573441,-2.78293 -6.044398,2.78293 h 27.44682 c 1.7573,0 3.18273,0.62139 3.18273,1.39162 v 0 2.08743 0 z"
     id="path869-5" />
  <text
     xml:space="preserve"
     style="font-style:normal;font-variant:normal;font-weight:normal;font-stretch:normal;font-size:4.23333311px;line-height:1.25;font-family:sans-serif;-inkscape-font-specification:'sans-serif, Normal';font-variant-ligatures:normal;font-variant-caps:normal;font-variant-numeric:normal;font-feature-settings:normal;text-align:start;letter-spacing:0px;word-spacing:0px;writing-mode:lr-tb;text-anchor:start;fill:#000000;fill-opacity:1;stroke:none;stroke-width:0.26458332"
     x="64.996162"
     y="124.29846"
     id="text888-4"><tspan
       id="tspan44"
       x="64.996162"
       y="124.29846">③Sphere をクリック</tspan></text>
  <rect
     style="fill:none;fill-opacity:1;stroke:#f30000;stroke-width:0.33301485;stroke-miterlimit:4;stroke-dasharray:none;stroke-dashoffset:0;stroke-opacity:1"
     id="rect848-6-3"
     width="11.891625"
     height="7.2815628"
     x="91.439232"
     y="86.12455"
     ry="1.9648671" />
  <path
     style="fill:#ffffff;fill-opacity:1;stroke:#000000;stroke-width:0.27606735;stroke-linecap:butt;stroke-linejoin:miter;stroke-miterlimit:8;stroke-dasharray:none;stroke-opacity:1"
     clip-path="none"
     d="m 98.556077,73.620809 c 0,-0.7512 0.957024,-1.36052 2.136873,-1.36052 h 15.09513 v 0 h 7.38475 2.78534 c 1.18271,0 2.13686,0.60932 2.13686,1.36052 v 3.401308 0 2.040773 0 c 0,0.753033 -0.95415,1.360535 -2.13686,1.360535 h -13.42674 l -14.492283,6.103506 8.765963,-6.103506 h -6.11216 c -1.179849,0 -2.136873,-0.607502 -2.136873,-1.360535 v 0 -2.040773 0 z"
     id="path869-5-7" />
  <text
     xml:space="preserve"
     style="font-style:normal;font-variant:normal;font-weight:normal;font-stretch:normal;font-size:4.93888903px;line-height:1.25;font-family:sans-serif;-inkscape-font-specification:'sans-serif, Normal';font-variant-ligatures:normal;font-variant-caps:normal;font-variant-numeric:normal;font-feature-settings:normal;text-align:start;letter-spacing:0px;word-spacing:0px;writing-mode:lr-tb;text-anchor:start;fill:#000000;fill-opacity:1;stroke:none;stroke-width:0.26458332"
     x="100.83743"
     y="78.03167"
     id="text888-4-5"><tspan
       id="tspan42"
       x="100.83743"
       y="78.03167">②クリック</tspan></text>
</svg>
