<?xml version="1.0" encoding="UTF-8" standalone="no"?>
<svg
   xmlns:dc="http://purl.org/dc/elements/1.1/"
   xmlns:cc="http://creativecommons.org/ns#"
   xmlns:rdf="http://www.w3.org/1999/02/22-rdf-syntax-ns#"
   xmlns:svg="http://www.w3.org/2000/svg"
   xmlns="http://www.w3.org/2000/svg"
   xmlns:xlink="http://www.w3.org/1999/xlink"
   id="svg8"
   version="1.1"
   viewBox="0 0 102.39285 60.325008"
   height="60.325001mm"
   width="102.39285mm">
  <defs
     id="defs2" />
  <metadata
     id="metadata5">
    <rdf:RDF>
      <cc:Work
         rdf:about="">
        <dc:format>image/svg+xml</dc:format>
        <dc:type
           rdf:resource="http://purl.org/dc/dcmitype/StillImage" />
        <dc:title></dc:title>
      </cc:Work>
    </rdf:RDF>
  </metadata>
  <image
     xlink:href="fig_09_04.png"
     y="0"
     x="12.330709"
     id="image32"
     preserveAspectRatio="none"
     height="60.325005"
     width="87.04792" />
  <rect
     style="fill:none;fill-opacity:1;stroke:#f30000;stroke-width:0.30477229;stroke-miterlimit:4;stroke-dasharray:none;stroke-dashoffset:0;stroke-opacity:1"
     id="rect848"
     width="8.0380468"
     height="9.0227499"
     x="10.986612"
     y="42.269699"
     ry="2.4347119" />
  <path
     style="fill:#ffffff;fill-opacity:1;stroke:#000000;stroke-width:0.36881763;stroke-linecap:butt;stroke-linejoin:miter;stroke-miterlimit:8;stroke-dasharray:none;stroke-opacity:1"
     clip-path="none"
     d="m 0.18440881,30.343875 c 0,-1.076327 1.19211999,-1.949377 2.66180999,-1.949377 H 21.649696 v 0 h 9.19891 3.46959 c 1.47326,0 2.66182,0.87305 2.66182,1.949377 v 4.873442 0 2.924066 0 c 0,1.078933 -1.18856,1.949374 -2.66182,1.949374 h -16.7252 l -2.57701,2.017671 -4.556079,-2.017671 H 2.8462188 c -1.46969,0 -2.66180999,-0.870441 -2.66180999,-1.949374 v 0 -2.924066 0 z"
     id="path869" />
  <text
     xml:space="preserve"
     style="font-style:normal;font-weight:normal;font-size:10.58333302px;line-height:1.25;font-family:sans-serif;letter-spacing:0px;word-spacing:0px;fill:#000000;fill-opacity:1;stroke:none;stroke-width:0.26458332"
     x="3.2500489"
     y="36.665138"
     id="text888"><tspan
       id="tspan886"
       x="3.2500489"
       y="36.665138"
       style="font-size:6.3499999px;stroke-width:0.26458332">①クリック</tspan></text>
  <rect
     style="fill:none;fill-opacity:1;stroke:#f30000;stroke-width:0.48993057;stroke-miterlimit:4;stroke-dasharray:none;stroke-dashoffset:0;stroke-opacity:1"
     id="rect848-6"
     width="30.452967"
     height="6.1542912"
     x="48.153503"
     y="50.431999"
     ry="1.6606827" />
  <path
     style="fill:#ffffff;fill-opacity:1;stroke:#000000;stroke-width:0.45476425;stroke-linecap:butt;stroke-linejoin:miter;stroke-miterlimit:8;stroke-dasharray:none;stroke-opacity:1"
     clip-path="none"
     d="m 40.972668,38.776248 c 0,-0.983987 1.98256,-1.782135 4.42673,-1.782135 h 31.27105 v 0 h 15.29821 5.77011 c 2.450092,0 4.426712,0.798148 4.426712,1.782135 v 4.45534 0 2.673204 0 c 0,0.986369 -1.97662,1.782135 -4.426712,1.782135 h -27.8148 l -8.050813,2.246943 -3.811847,-2.246943 h -12.66191 c -2.44417,0 -4.42673,-0.795766 -4.42673,-1.782135 v 0 -2.673204 0 z"
     id="path869-5" />
  <text
     xml:space="preserve"
     style="font-style:normal;font-variant:normal;font-weight:normal;font-stretch:normal;font-size:7.05555582px;line-height:1.25;font-family:sans-serif;-inkscape-font-specification:'sans-serif, Normal';font-variant-ligatures:normal;font-variant-caps:normal;font-variant-numeric:normal;font-feature-settings:normal;text-align:start;letter-spacing:0px;word-spacing:0px;writing-mode:lr-tb;text-anchor:start;fill:#000000;fill-opacity:1;stroke:none;stroke-width:0.26458332"
     x="44.00687"
     y="44.682648"
     id="text888-4"><tspan
       y="44.682648"
       x="44.00687"
       id="tspan35">②ダブルクリック</tspan></text>
  <flowRoot
     xml:space="preserve"
     id="flowRoot38"
     style="font-style:normal;font-weight:normal;font-size:40px;line-height:1.25;font-family:sans-serif;letter-spacing:0px;word-spacing:0px;fill:#000000;fill-opacity:1;stroke:none"
     transform="matrix(0.26458333,0,0,0.26458333,106.46415,-7.6893682)"><flowRegion
       id="flowRegion40"><rect
         id="rect42"
         width="412.14285"
         height="129.28572"
         x="-55"
         y="124.36342" /></flowRegion><flowPara
       id="flowPara44" /></flowRoot></svg>
