<?xml version="1.0" encoding="UTF-8" standalone="no"?>
<svg
   xmlns:dc="http://purl.org/dc/elements/1.1/"
   xmlns:cc="http://creativecommons.org/ns#"
   xmlns:rdf="http://www.w3.org/1999/02/22-rdf-syntax-ns#"
   xmlns:svg="http://www.w3.org/2000/svg"
   xmlns="http://www.w3.org/2000/svg"
   xmlns:xlink="http://www.w3.org/1999/xlink"
   id="svg8"
   version="1.1"
   viewBox="0 0 392.45792 209.02084"
   height="790"
   width="1483.3055">
  <defs
     id="defs2">
    <clipPath
       clipPathUnits="userSpaceOnUse"
       id="clipEmfPath1">
      <path
         d="M 3.6674174,3.6674174 H 418.56394 V 221.95848 H 3.6674174 Z"
         id="path861" />
    </clipPath>
    <pattern
       id="EMFhbasepattern"
       patternUnits="userSpaceOnUse"
       width="6"
       height="6"
       x="0"
       y="0" />
    <clipPath
       clipPathUnits="userSpaceOnUse"
       id="clipEmfPath1-8">
      <path
         d="M 3.6674174,3.6674174 H 418.56394 V 221.95848 H 3.6674174 Z"
         id="path861-2" />
    </clipPath>
    <clipPath
       clipPathUnits="userSpaceOnUse"
       id="clipEmfPath1-8-6">
      <path
         d="M 3.6674174,3.6674174 H 418.56394 V 221.95848 H 3.6674174 Z"
         id="path861-2-6" />
    </clipPath>
    <clipPath
       clipPathUnits="userSpaceOnUse"
       id="clipEmfPath1-8-1">
      <path
         d="M 3.6674174,3.6674174 H 418.56394 V 221.95848 H 3.6674174 Z"
         id="path861-2-8" />
    </clipPath>
    <clipPath
       clipPathUnits="userSpaceOnUse"
       id="clipEmfPath1-8-1-1">
      <path
         d="M 3.6674174,3.6674174 H 418.56394 V 221.95848 H 3.6674174 Z"
         id="path861-2-8-2" />
    </clipPath>
  </defs>
  <metadata
     id="metadata5">
    <rdf:RDF>
      <cc:Work
         rdf:about="">
        <dc:format>image/svg+xml</dc:format>
        <dc:type
           rdf:resource="http://purl.org/dc/dcmitype/StillImage" />
        <dc:title></dc:title>
      </cc:Work>
    </rdf:RDF>
  </metadata>
  <image
     xlink:href="fig_08_01.png"
     y="-8.8817842e-16"
     x="0"
     id="image33"
     preserveAspectRatio="none"
     height="209.02083"
     width="321.46875" />
  <rect
     style="fill:none;fill-opacity:1;stroke:#f30000;stroke-width:0.505566;stroke-miterlimit:4;stroke-dasharray:none;stroke-dashoffset:0;stroke-opacity:1"
     id="rect848"
     width="22.842196"
     height="8.7368851"
     x="11.882548"
     y="43.107903"
     ry="2.357573" />
  <path
     transform="matrix(0.11654302,0,0,0.08534982,22.694078,24.458821)"
     style="fill:#ffffff;fill-opacity:1;stroke:#000000;stroke-width:4.82778692;stroke-linecap:butt;stroke-linejoin:miter;stroke-miterlimit:8;stroke-dasharray:none;stroke-opacity:1"
     clip-path="url(#clipEmfPath1)"
     d="M 5.0227672,34.840465 C 5.0227672,18.37695 18.37695,5.0227672 34.840465,5.0227672 H 245.47778 v 0 h 103.04646 38.86665 c 16.50338,0 29.8177,13.3541828 29.8177,29.8176978 v 74.544245 0 44.72655 0 c 0,16.50337 -13.31432,29.81769 -29.8177,29.81769 h -187.3564 l -96.80503,34.57293 16.89983,-34.57293 H 34.840465 c -16.463515,0 -29.8176978,-13.31432 -29.8176978,-29.81769 v 0 -44.72655 0 z"
     id="path869" />
  <text
     xml:space="preserve"
     style="font-style:normal;font-weight:normal;font-size:13.81666851px;line-height:1.25;font-family:sans-serif;letter-spacing:0px;word-spacing:0px;fill:#000000;fill-opacity:1;stroke:none;stroke-width:0.34541669"
     x="27.281376"
     y="35.684933"
     id="text888"><tspan
       id="tspan886"
       x="27.281376"
       y="35.684933"
       style="font-size:8.29000092px;stroke-width:0.34541669">①クリック</tspan></text>
  <rect
     style="fill:none;fill-opacity:1;stroke:#f30000;stroke-width:1.01358294;stroke-miterlimit:4;stroke-dasharray:none;stroke-dashoffset:0;stroke-opacity:1"
     id="rect848-6"
     width="89.853546"
     height="8.9273396"
     x="229.75758"
     y="197.31432"
     ry="2.4089658" />
  <path
     style="fill:#ffffff;fill-opacity:1;stroke:#000000;stroke-width:0.47413206;stroke-linecap:butt;stroke-linejoin:miter;stroke-miterlimit:8;stroke-dasharray:none;stroke-opacity:1"
     clip-path="none"
     d="m 184.74675,179.35394 c 0,-1.40556 1.50867,-2.54567 3.36863,-2.54567 h 23.79652 v 0 h 11.64156 4.39092 c 1.86446,0 3.36862,1.14011 3.36862,2.54567 v 6.36414 0 3.81851 0 c 0,1.40895 -1.50416,2.54566 -3.36862,2.54566 h -0.94546 l 14.86743,4.67862 -23.89463,-4.67862 h -29.85634 c -1.85996,0 -3.36863,-1.13671 -3.36863,-2.54566 v 0 -3.81851 0 z"
     id="path869-5" />
  <text
     xml:space="preserve"
     style="font-style:normal;font-weight:normal;font-size:13.81666851px;line-height:1.25;font-family:sans-serif;letter-spacing:0px;word-spacing:0px;fill:#000000;fill-opacity:1;stroke:none;stroke-width:0.34541669"
     x="188.73155"
     y="187.60498"
     id="text888-6"><tspan
       id="tspan886-4"
       x="188.73155"
       y="187.60498"
       style="font-size:8.29000092px;stroke-width:0.34541669">③クリック</tspan></text>
  <rect
     style="fill:none;fill-opacity:1;stroke:#f30000;stroke-width:0.505566;stroke-miterlimit:4;stroke-dasharray:none;stroke-dashoffset:0;stroke-opacity:1"
     id="rect848-0"
     width="22.842196"
     height="8.7368851"
     x="228.71638"
     y="24.292892"
     ry="2.357573" />
  <path
     transform="matrix(0.11654302,0,0,0.08534982,228.28905,5.348797)"
     style="fill:#ffffff;fill-opacity:1;stroke:#000000;stroke-width:4.82778692;stroke-linecap:butt;stroke-linejoin:miter;stroke-miterlimit:8;stroke-dasharray:none;stroke-opacity:1"
     clip-path="url(#clipEmfPath1-8)"
     d="M 5.0227672,34.840465 C 5.0227672,18.37695 18.37695,5.0227672 34.840465,5.0227672 H 245.47778 v 0 h 103.04646 38.86665 c 16.50338,0 29.8177,13.3541828 29.8177,29.8176978 v 74.544245 0 44.72655 0 c 0,16.50337 -13.31432,29.81769 -29.8177,29.81769 h -187.3564 l -96.80503,34.57293 16.89983,-34.57293 H 34.840465 c -16.463515,0 -29.8176978,-13.31432 -29.8176978,-29.81769 v 0 -44.72655 0 z"
     id="path869-8" />
  <text
     xml:space="preserve"
     style="font-style:normal;font-weight:normal;font-size:13.81666851px;line-height:1.25;font-family:sans-serif;letter-spacing:0px;word-spacing:0px;fill:#000000;fill-opacity:1;stroke:none;stroke-width:0.34541669"
     x="232.87627"
     y="16.57494"
     id="text888-5"><tspan
       id="tspan886-8"
       x="232.87627"
       y="16.57494"
       style="font-size:8.29000092px;stroke-width:0.34541669">②クリック</tspan></text>
  <image
     xlink:href="fig_08_02.png"
     y="149.79095"
     x="304.61627"
     id="image44"
     preserveAspectRatio="none"
     height="36.512501"
     width="61.383335" />
  <rect
     style="fill:none;fill-opacity:1;stroke:#f30000;stroke-width:0.505566;stroke-miterlimit:4;stroke-dasharray:none;stroke-dashoffset:0;stroke-opacity:1"
     id="rect848-0-8"
     width="22.842196"
     height="8.7368851"
     x="304.61621"
     y="149.79094"
     ry="2.357573" />
  <path
     transform="matrix(0.17982398,0,0,0.08494727,292.26034,130.89218)"
     style="fill:#ffffff;fill-opacity:1;stroke:#000000;stroke-width:4.82778692;stroke-linecap:butt;stroke-linejoin:miter;stroke-miterlimit:8;stroke-dasharray:none;stroke-opacity:1"
     clip-path="url(#clipEmfPath1-8-6)"
     d="M 5.0227672,34.840465 C 5.0227672,18.37695 18.37695,5.0227672 34.840465,5.0227672 H 245.47778 v 0 h 103.04646 38.86665 c 16.50338,0 29.8177,13.3541828 29.8177,29.8176978 v 74.544245 0 44.72655 0 c 0,16.50337 -13.31432,29.81769 -29.8177,29.81769 h -187.3564 l -96.80503,34.57293 16.89983,-34.57293 H 34.840465 c -16.463515,0 -29.8176978,-13.31432 -29.8176978,-29.81769 v 0 -44.72655 0 z"
     id="path869-8-1" />
  <text
     xml:space="preserve"
     style="font-style:normal;font-weight:normal;font-size:13.81666851px;line-height:1.25;font-family:sans-serif;letter-spacing:0px;word-spacing:0px;fill:#000000;fill-opacity:1;stroke:none;stroke-width:0.34541669"
     x="297.13425"
     y="142.07298"
     id="text888-5-6"><tspan
       id="tspan886-8-9"
       x="297.13425"
       y="142.07298"
       style="font-size:8.29000092px;stroke-width:0.34541669">④「rigid」と入力</tspan></text>
  <rect
     style="fill:none;fill-opacity:1;stroke:#f30000;stroke-width:0.56261122;stroke-miterlimit:4;stroke-dasharray:none;stroke-dashoffset:0;stroke-opacity:1"
     id="rect848-0-80"
     width="28.473692"
     height="8.6798401"
     x="303.90723"
     y="160.79172"
     ry="2.3421798" />
  <path
     transform="matrix(0.11654302,0,0,-0.07207875,314.79886,185.95731)"
     style="fill:#ffffff;fill-opacity:1;stroke:#000000;stroke-width:4.82778692;stroke-linecap:butt;stroke-linejoin:miter;stroke-miterlimit:8;stroke-dasharray:none;stroke-opacity:1"
     clip-path="url(#clipEmfPath1-8-1)"
     d="M 5.0227672,34.840465 C 5.0227672,18.37695 18.37695,5.0227672 34.840465,5.0227672 H 245.47778 v 0 h 103.04646 38.86665 c 16.50338,0 29.8177,13.3541828 29.8177,29.8176978 v 74.544245 0 44.72655 0 c 0,16.50337 -13.31432,29.81769 -29.8177,29.81769 h -187.3564 l -96.80503,34.57293 16.89983,-34.57293 H 34.840465 c -16.463515,0 -29.8176978,-13.31432 -29.8176978,-29.81769 v 0 -44.72655 0 z"
     id="path869-8-7" />
  <text
     xml:space="preserve"
     style="font-style:normal;font-weight:normal;font-size:13.81666851px;line-height:1.25;font-family:sans-serif;letter-spacing:0px;word-spacing:0px;fill:#000000;fill-opacity:1;stroke:none;stroke-width:0.34541669"
     x="319.06976"
     y="182.48766"
     id="text888-5-2"><tspan
       id="tspan886-8-4"
       x="319.06976"
       y="182.48766"
       style="font-size:8.29000092px;stroke-width:0.34541669">⑤クリック</tspan></text>
  <image
     xlink:href="fig_08_03.png"
     y="34.844158"
     x="323.66626"
     id="image115"
     preserveAspectRatio="none"
     height="85.460411"
     width="68.791672" />
  <rect
     style="fill:none;fill-opacity:1;stroke:#f30000;stroke-width:0.56261122;stroke-miterlimit:4;stroke-dasharray:none;stroke-dashoffset:0;stroke-opacity:1"
     id="rect848-0-80-5"
     width="28.473692"
     height="8.6798401"
     x="322.99408"
     y="47.566704"
     ry="2.3421798" />
  <path
     transform="matrix(0.11654302,0,0,0.10119974,329.14525,25.695846)"
     style="fill:#ffffff;fill-opacity:1;stroke:#000000;stroke-width:4.82778692;stroke-linecap:butt;stroke-linejoin:miter;stroke-miterlimit:8;stroke-dasharray:none;stroke-opacity:1"
     clip-path="url(#clipEmfPath1-8-1-1)"
     d="M 5.0227672,34.840465 C 5.0227672,18.37695 18.37695,5.0227672 34.840465,5.0227672 H 245.47778 v 0 h 103.04646 38.86665 c 16.50338,0 29.8177,13.3541828 29.8177,29.8176978 v 74.544245 0 44.72655 0 c 0,16.50337 -13.31432,29.81769 -29.8177,29.81769 h -187.3564 l -96.80503,34.57293 16.89983,-34.57293 H 34.840465 c -16.463515,0 -29.8176978,-13.31432 -29.8176978,-29.81769 v 0 -44.72655 0 z"
     id="path869-8-7-8" />
  <text
     xml:space="preserve"
     style="font-style:normal;font-variant:normal;font-weight:normal;font-stretch:normal;font-size:6.3499999px;line-height:1.25;font-family:sans-serif;-inkscape-font-specification:'sans-serif, Normal';font-variant-ligatures:normal;font-variant-caps:normal;font-variant-numeric:normal;font-feature-settings:normal;text-align:start;letter-spacing:0px;word-spacing:0px;writing-mode:lr-tb;text-anchor:start;fill:#000000;fill-opacity:1;stroke:none;stroke-width:0.34541669"
     x="331.67798"
     y="33.525528"
     id="text888-5-2-4"><tspan
       y="33.525528"
       x="331.67798"
       id="tspan152">⑥Rigidbodyが</tspan><tspan
       y="41.920513"
       x="331.67798"
       id="tspan154">追加される</tspan></text>
</svg>
