<?xml version="1.0" encoding="UTF-8" standalone="no"?>
<svg
   xmlns:dc="http://purl.org/dc/elements/1.1/"
   xmlns:cc="http://creativecommons.org/ns#"
   xmlns:rdf="http://www.w3.org/1999/02/22-rdf-syntax-ns#"
   xmlns:svg="http://www.w3.org/2000/svg"
   xmlns="http://www.w3.org/2000/svg"
   xmlns:xlink="http://www.w3.org/1999/xlink"
   id="svg8"
   version="1.1"
   viewBox="0 0 1000.8655 636.91254"
   height="636.91254"
   width="1000.8655">
  <defs
     id="defs2">
    <clipPath
       clipPathUnits="userSpaceOnUse"
       id="clipEmfPath1">
      <path
         d="M 3.6674174,3.6674174 H 418.56394 V 221.95848 H 3.6674174 Z"
         id="path861" />
    </clipPath>
    <pattern
       id="EMFhbasepattern"
       patternUnits="userSpaceOnUse"
       width="6"
       height="6"
       x="0"
       y="0" />
  </defs>
  <metadata
     id="metadata5">
    <rdf:RDF>
      <cc:Work
         rdf:about="">
        <dc:format>image/svg+xml</dc:format>
        <dc:type
           rdf:resource="http://purl.org/dc/dcmitype/StillImage" />
        <dc:title></dc:title>
      </cc:Work>
    </rdf:RDF>
  </metadata>
  <image
     xlink:href="fig_02_09.png"
     y="62.351837"
     x="298.86554"
     id="image844"
     preserveAspectRatio="none"
     height="569"
     width="702" />
  <rect
     style="fill:none;fill-opacity:1;stroke:#f30000;stroke-width:2.30087996;stroke-miterlimit:4;stroke-dasharray:none;stroke-dashoffset:0;stroke-opacity:1"
     id="rect848"
     width="125.18551"
     height="33.01965"
     x="321.38889"
     y="78.226761"
     ry="8.9100685" />
  <path
     transform="matrix(0.59477964,0,0,0.35586191,366.94972,-1.3050942)"
     style="fill:#ffffff;fill-opacity:1;stroke:#000000;stroke-width:4.82778692;stroke-linecap:butt;stroke-linejoin:miter;stroke-miterlimit:8;stroke-dasharray:none;stroke-opacity:1"
     clip-path="url(#clipEmfPath1)"
     d="M 5.0227672,34.840465 C 5.0227672,18.37695 18.37695,5.0227672 34.840465,5.0227672 H 245.47778 v 0 h 103.04646 38.86665 c 16.50338,0 29.8177,13.3541828 29.8177,29.8176978 v 74.544245 0 44.72655 0 c 0,16.50337 -13.31432,29.81769 -29.8177,29.81769 h -187.3564 l -96.80503,34.57293 16.89983,-34.57293 H 34.840465 c -16.463515,0 -29.8176978,-13.31432 -29.8176978,-29.81769 v 0 -44.72655 0 z"
     id="path869" />
  <text
     xml:space="preserve"
     style="font-style:normal;font-variant:normal;font-weight:normal;font-stretch:normal;font-size:24px;line-height:1.25;font-family:sans-serif;-inkscape-font-specification:'sans-serif, Normal';font-variant-ligatures:normal;font-variant-caps:normal;font-variant-numeric:normal;font-feature-settings:normal;text-align:start;letter-spacing:0px;word-spacing:0px;writing-mode:lr-tb;text-anchor:start;fill:#000000;fill-opacity:1;stroke:none;stroke-width:1.26945674"
     x="379.86609"
     y="25.907724"
     id="text888"><tspan
       id="tspan847"
       x="379.86609"
       y="25.907724">①「プロジェクト内」</tspan><tspan
       id="tspan849"
       x="379.86609"
       y="57.636799">を選択</tspan></text>
  <rect
     style="fill:none;fill-opacity:1;stroke:#f30000;stroke-width:2.94428897;stroke-miterlimit:4;stroke-dasharray:none;stroke-dashoffset:0;stroke-opacity:1"
     id="rect848-6"
     width="143.25975"
     height="47.24712"
     x="803.78674"
     y="588.1933"
     ry="12.749229" />
  <path
     style="fill:#ffffff;fill-opacity:1;stroke:#000000;stroke-width:1.50692415;stroke-linecap:butt;stroke-linejoin:miter;stroke-miterlimit:8;stroke-dasharray:none;stroke-opacity:1"
     clip-path="none"
     d="m 231.47272,316.93303 c 0,3.78381 5.66107,6.85298 12.64025,6.85298 h 89.29288 v 0 h 43.68321 16.47627 c 6.99607,0 12.64025,-3.06917 12.64025,-6.85298 v -17.13242 0 -10.27947 0 c 0,-3.79295 -5.64418,-6.85298 -12.64025,-6.85298 h -79.42369 l -14.7734,-10.90613 -19.09983,10.90613 h -36.15544 c -6.97918,0 -12.64025,3.06003 -12.64025,6.85298 v 0 10.27947 0 z"
     id="path869-5" />
  <text
     xml:space="preserve"
     style="font-style:normal;font-weight:normal;font-size:50.77826691px;line-height:1.25;font-family:sans-serif;letter-spacing:0px;word-spacing:0px;fill:#000000;fill-opacity:1;stroke:none;stroke-width:1.26945674"
     x="242.26508"
     y="313.6257"
     id="text888-6"><tspan
       id="tspan886-4"
       x="242.26508"
       y="313.6257"
       style="font-size:30.46696091px;stroke-width:1.26945674">②クリック</tspan></text>
  <rect
     style="fill:none;fill-opacity:1;stroke:#f30000;stroke-width:1.23802626;stroke-miterlimit:4;stroke-dasharray:none;stroke-dashoffset:0;stroke-opacity:1"
     id="rect848-2"
     width="42.261539"
     height="28.317381"
     x="276.82043"
     y="243.27654"
     ry="7.641202" />
  <path
     style="fill:#ffffff;fill-opacity:1;stroke:#000000;stroke-width:1.56887305;stroke-linecap:butt;stroke-linejoin:miter;stroke-miterlimit:8;stroke-dasharray:none;stroke-opacity:1"
     clip-path="none"
     d="m 333.04221,403.69167 c 0,3.78381 6.13609,6.85298 13.70089,6.85298 h 96.78537 v 0 h 47.34862 17.85878 c 7.5831,0 13.70088,-3.06917 13.70088,-6.85298 v -17.13242 0 -10.27947 0 c 0,-3.79295 -6.11778,-6.85298 -13.70088,-6.85298 H 422.64781 L 534.02286,280.16964 385.93231,369.4268 H 346.7431 c -7.5648,0 -13.70089,3.06003 -13.70089,6.85298 v 0 10.27947 0 z"
     id="path869-5-4" />
  <text
     xml:space="preserve"
     style="font-style:normal;font-variant:normal;font-weight:normal;font-stretch:normal;font-size:21.33333397px;line-height:1.25;font-family:sans-serif;-inkscape-font-specification:'sans-serif, Normal';font-variant-ligatures:normal;font-variant-caps:normal;font-variant-numeric:normal;font-feature-settings:normal;text-align:start;letter-spacing:0px;word-spacing:0px;writing-mode:lr-tb;text-anchor:start;fill:#000000;fill-opacity:1;stroke:none;stroke-width:1.26945674"
     x="337.39316"
     y="398.38434"
     id="text888-6-4"><tspan
       id="tspan875"
       x="337.39316"
       y="398.38434">④1.1.3をクリック</tspan></text>
  <rect
     style="fill:none;fill-opacity:1;stroke:#f30000;stroke-width:1.23802626;stroke-miterlimit:4;stroke-dasharray:none;stroke-dashoffset:0;stroke-opacity:1"
     id="rect848-2-6"
     width="42.261539"
     height="28.317381"
     x="534.19684"
     y="264.22031"
     ry="7.641202" />
  <path
     style="fill:#ffffff;fill-opacity:1;stroke:#000000;stroke-width:1.53051949;stroke-linecap:butt;stroke-linejoin:miter;stroke-miterlimit:8;stroke-dasharray:none;stroke-opacity:1"
     clip-path="none"
     d="m 781.09847,537.73812 c 0,-3.90323 5.66107,-7.06927 12.64025,-7.06927 h 89.29289 v 0 h 43.68321 16.47627 c 6.99607,0 12.64025,3.16604 12.64025,7.06927 v 17.67313 0 10.6039 0 c 0,3.91266 -5.64418,7.06927 -12.64025,7.06927 h -79.4237 l -14.7734,11.25034 -19.09983,-11.25034 h -36.15544 c -6.97918,0 -12.64025,-3.15661 -12.64025,-7.06927 v 0 -10.6039 0 z"
     id="path869-5-6" />
  <text
     xml:space="preserve"
     style="font-style:normal;font-weight:normal;font-size:50.77826691px;line-height:1.25;font-family:sans-serif;letter-spacing:0px;word-spacing:0px;fill:#000000;fill-opacity:1;stroke:none;stroke-width:1.26945674"
     x="791.89081"
     y="561.68408"
     id="text888-6-9"><tspan
       id="tspan886-4-2"
       x="791.89081"
       y="561.68408"
       style="font-size:30.46696091px;stroke-width:1.26945674">⑤クリック</tspan></text>
  <image
     xlink:href="fig_02_09_b.png"
     y="339.70895"
     x="0"
     id="image36"
     preserveAspectRatio="none"
     height="229.91672"
     width="294.29446" />
  <path
     style="fill:#ffffff;fill-opacity:1;stroke:#000000;stroke-width:1.50692415;stroke-linecap:butt;stroke-linejoin:miter;stroke-miterlimit:8;stroke-dasharray:none;stroke-opacity:1"
     clip-path="none"
     d="m 119.56159,597.03756 c 0,3.78381 5.66107,6.85298 12.64025,6.85298 h 89.29289 v 0 h 43.68321 16.47627 c 6.99607,0 12.64025,-3.06917 12.64025,-6.85298 v -17.13242 0 -10.27947 0 c 0,-3.79295 -5.64418,-6.85298 -12.64025,-6.85298 h -79.4237 l -14.7734,-10.90613 -19.09983,10.90613 h -36.15544 c -6.97918,0 -12.64025,3.06003 -12.64025,6.85298 v 0 10.27947 0 z"
     id="path869-5-8" />
  <text
     xml:space="preserve"
     style="font-style:normal;font-weight:normal;font-size:50.77826691px;line-height:1.25;font-family:sans-serif;letter-spacing:0px;word-spacing:0px;fill:#000000;fill-opacity:1;stroke:none;stroke-width:1.26945674"
     x="130.35394"
     y="593.73022"
     id="text888-6-0"><tspan
       id="tspan886-4-4"
       x="130.35394"
       y="593.73022"
       style="font-size:30.46696091px;stroke-width:1.26945674">③クリック</tspan></text>
  <rect
     style="fill:none;fill-opacity:1;stroke:#f30000;stroke-width:2.06104517;stroke-miterlimit:4;stroke-dasharray:none;stroke-dashoffset:0;stroke-opacity:1"
     id="rect848-2-8"
     width="120.63409"
     height="27.494362"
     x="165.32082"
     y="523.79254"
     ry="7.4191175" />
</svg>
