<?xml version="1.0" encoding="UTF-8" standalone="no"?>
<svg
   xmlns:dc="http://purl.org/dc/elements/1.1/"
   xmlns:cc="http://creativecommons.org/ns#"
   xmlns:rdf="http://www.w3.org/1999/02/22-rdf-syntax-ns#"
   xmlns:svg="http://www.w3.org/2000/svg"
   xmlns="http://www.w3.org/2000/svg"
   xmlns:xlink="http://www.w3.org/1999/xlink"
   id="svg8"
   version="1.1"
   viewBox="0 0 166.68748 161.66045"
   height="611"
   width="630">
  <defs
     id="defs2" />
  <metadata
     id="metadata5">
    <rdf:RDF>
      <cc:Work
         rdf:about="">
        <dc:format>image/svg+xml</dc:format>
        <dc:type
           rdf:resource="http://purl.org/dc/dcmitype/StillImage" />
        <dc:title></dc:title>
      </cc:Work>
    </rdf:RDF>
  </metadata>
  <g
     transform="translate(-82.618355,7.8572755)"
     id="layer1">
    <image
       xlink:href="fig_01_02.png"
       y="-7.8572755"
       x="82.618355"
       id="image27"
       preserveAspectRatio="none"
       height="161.66043"
       width="166.68752" />
    <flowRoot
       transform="matrix(0.26458333,0,0,0.26458333,11.496524,27.015234)"
       style="font-style:normal;font-weight:normal;font-size:40px;line-height:1.25;font-family:sans-serif;letter-spacing:0px;word-spacing:0px;fill:#000000;fill-opacity:1;stroke:none"
       id="flowRoot38"
       xml:space="preserve"><flowRegion
         id="flowRegion40"><rect
           y="124.36342"
           x="-55"
           height="129.28572"
           width="412.14285"
           id="rect42" /></flowRegion><flowPara
         id="flowPara44" /></flowRoot>    <rect
       ry="1.6721432"
       y="144.48627"
       x="186.91365"
       height="6.1967626"
       width="29.629658"
       id="rect848"
       style="fill:none;fill-opacity:1;stroke:#f30000;stroke-width:0.48492709;stroke-miterlimit:4;stroke-dasharray:none;stroke-dashoffset:0;stroke-opacity:1" />
    <path
       id="path869"
       d="m 197.18052,134.68508 c 0,-0.82949 0.88124,-1.50231 1.96766,-1.50231 H 213.048 v 0 h 6.79998 2.56478 c 1.08905,0 1.96766,0.67282 1.96766,1.50231 v 3.75578 0 2.25347 0 c 0,0.83149 -0.87861,1.5023 -1.96766,1.5023 h -12.36353 l -6.38811,1.7419 1.11522,-1.7419 h -5.62816 c -1.08642,0 -1.96766,-0.67081 -1.96766,-1.5023 v 0 -2.25347 0 z"
       clip-path="none"
       style="fill:#ffffff;fill-opacity:1;stroke:#000000;stroke-width:0.27837512;stroke-linecap:butt;stroke-linejoin:miter;stroke-miterlimit:8;stroke-dasharray:none;stroke-opacity:1" />
    <text
       id="text888"
       y="139.283"
       x="200.26752"
       style="font-style:normal;font-variant:normal;font-weight:normal;font-stretch:normal;font-size:4.23333311px;line-height:1.25;font-family:sans-serif;-inkscape-font-specification:'sans-serif, Normal';font-variant-ligatures:normal;font-variant-caps:normal;font-variant-numeric:normal;font-feature-settings:normal;text-align:start;letter-spacing:0px;word-spacing:0px;writing-mode:lr-tb;text-anchor:start;fill:#000000;fill-opacity:1;stroke:none;stroke-width:0.26458332"
       xml:space="preserve"><tspan
         y="139.283"
         x="200.26752"
         id="tspan28">②クリック</tspan></text>
    <path
       id="path869-4"
       d="m 102.37075,58.5097 c 0,-0.82949 0.88124,-1.50231 1.96766,-1.50231 h 13.89982 v 0 h 6.79998 2.56478 c 1.08905,0 1.96766,0.67282 1.96766,1.50231 v 3.75578 0 2.25347 0 c 0,0.83149 -0.87861,1.5023 -1.96766,1.5023 h -12.36353 l -6.38811,1.7419 1.11521,-1.7419 h -5.62815 c -1.08642,0 -1.96766,-0.67081 -1.96766,-1.5023 v 0 -2.25347 0 z"
       clip-path="none"
       style="fill:#ffffff;fill-opacity:1;stroke:#000000;stroke-width:0.27837512;stroke-linecap:butt;stroke-linejoin:miter;stroke-miterlimit:8;stroke-dasharray:none;stroke-opacity:1" />
    <text
       id="text888-0"
       y="63.10762"
       x="105.45774"
       style="font-style:normal;font-variant:normal;font-weight:normal;font-stretch:normal;font-size:4.23333311px;line-height:1.25;font-family:sans-serif;-inkscape-font-specification:'sans-serif, Normal';font-variant-ligatures:normal;font-variant-caps:normal;font-variant-numeric:normal;font-feature-settings:normal;text-align:start;letter-spacing:0px;word-spacing:0px;writing-mode:lr-tb;text-anchor:start;fill:#000000;fill-opacity:1;stroke:none;stroke-width:0.26458332"
       xml:space="preserve"><tspan
         y="63.10762"
         x="105.45774"
         id="tspan28-1"
         style="stroke-width:0.26458332">①クリック</tspan></text>
  </g>
</svg>
