<?xml version="1.0" encoding="UTF-8" standalone="no"?>
<svg
   xmlns:dc="http://purl.org/dc/elements/1.1/"
   xmlns:cc="http://creativecommons.org/ns#"
   xmlns:rdf="http://www.w3.org/1999/02/22-rdf-syntax-ns#"
   xmlns:svg="http://www.w3.org/2000/svg"
   xmlns="http://www.w3.org/2000/svg"
   xmlns:xlink="http://www.w3.org/1999/xlink"
   width="1388"
   height="682"
   viewBox="0 0 367.24164 180.44587"
   version="1.1"
   id="svg8">
  <defs
     id="defs2" />
  <metadata
     id="metadata5">
    <rdf:RDF>
      <cc:Work
         rdf:about="">
        <dc:format>image/svg+xml</dc:format>
        <dc:type
           rdf:resource="http://purl.org/dc/dcmitype/StillImage" />
        <dc:title></dc:title>
      </cc:Work>
    </rdf:RDF>
  </metadata>
  <image
     xlink:href="fig_03.png"
     y="7.1054274e-15"
     x="0"
     id="image860"
     preserveAspectRatio="none"
     height="180.44585"
     width="367.2417" />
  <flowRoot
     transform="matrix(0.26458333,0,0,0.26458333,64.067857,70.074232)"
     style="font-style:normal;font-weight:normal;font-size:40px;line-height:1.25;font-family:sans-serif;letter-spacing:0px;word-spacing:0px;fill:#000000;fill-opacity:1;stroke:none"
     id="flowRoot38"
     xml:space="preserve"><flowRegion
       id="flowRegion40"><rect
         y="124.36342"
         x="-55"
         height="129.28572"
         width="412.14285"
         id="rect42" /></flowRegion><flowPara
       id="flowPara44" /></flowRoot>  <rect
     ry="1.8192747"
     y="171.21623"
     x="134.86145"
     height="6.7420144"
     width="26.174768"
     id="rect848"
     style="fill:none;fill-opacity:1;stroke:#f30000;stroke-width:0.47540852;stroke-miterlimit:4;stroke-dasharray:none;stroke-dashoffset:0;stroke-opacity:1" />
  <path
     id="path869"
     d="m 138.85851,163.44436 c 0,-0.69348 0.85349,-1.25598 1.9057,-1.25598 h 13.46212 v 0 h 6.58584 2.48402 c 1.05476,0 1.9057,0.5625 1.9057,1.25598 v 3.13996 0 1.88398 0 c 0,0.69515 -0.85094,1.25598 -1.9057,1.25598 h -11.97421 l -6.18694,1.45628 1.08009,-1.45628 h -5.45092 c -1.05221,0 -1.9057,-0.56083 -1.9057,-1.25598 v 0 -1.88398 0 z"
     clip-path="none"
     style="fill:#ffffff;fill-opacity:1;stroke:#000000;stroke-width:0.25049174;stroke-linecap:butt;stroke-linejoin:miter;stroke-miterlimit:8;stroke-dasharray:none;stroke-opacity:1" />
  <text
     id="text888"
     y="167.40727"
     x="140.40479"
     style="font-style:normal;font-variant:normal;font-weight:normal;font-stretch:normal;font-size:4.23333311px;line-height:1.25;font-family:sans-serif;-inkscape-font-specification:'sans-serif, Normal';font-variant-ligatures:normal;font-variant-caps:normal;font-variant-numeric:normal;font-feature-settings:normal;text-align:start;letter-spacing:0px;word-spacing:0px;writing-mode:lr-tb;text-anchor:start;fill:#000000;fill-opacity:1;stroke:none;stroke-width:0.26458332"
     xml:space="preserve"><tspan
       y="167.40727"
       x="140.40479"
       id="tspan37">①クリック</tspan></text>
  <rect
     ry="1.9453568"
     y="130.80534"
     x="314.2547"
     height="7.2092595"
     width="17.792595"
     id="rect848-6"
     style="fill:none;fill-opacity:1;stroke:#f30000;stroke-width:0.40531778;stroke-miterlimit:4;stroke-dasharray:none;stroke-dashoffset:0;stroke-opacity:1" />
  <path
     id="path869-5"
     d="m 331.36155,148.05392 c 0,0.76836 -0.84498,1.39162 -1.88668,1.39162 h -13.3279 v 0 h -6.52018 -2.45924 c -1.04424,0 -1.88668,-0.62326 -1.88668,-1.39162 v -3.47905 0 -2.08743 0 c 0,-0.77023 0.84244,-1.39162 1.88668,-1.39162 h 0.98121 l 8.63898,-2.78293 -3.58305,2.78293 h 16.27018 c 1.0417,0 1.88668,0.62139 1.88668,1.39162 v 0 2.08743 0 z"
     clip-path="none"
     style="fill:#ffffff;fill-opacity:1;stroke:#000000;stroke-width:0.26235229;stroke-linecap:butt;stroke-linejoin:miter;stroke-miterlimit:8;stroke-dasharray:none;stroke-opacity:1" />
  <text
     id="text888-4"
     y="146.61772"
     x="306.7879"
     style="font-style:normal;font-variant:normal;font-weight:normal;font-stretch:normal;font-size:4.23333311px;line-height:1.25;font-family:sans-serif;-inkscape-font-specification:'sans-serif, Normal';font-variant-ligatures:normal;font-variant-caps:normal;font-variant-numeric:normal;font-feature-settings:normal;text-align:start;letter-spacing:0px;word-spacing:0px;writing-mode:lr-tb;text-anchor:start;fill:#000000;fill-opacity:1;stroke:none;stroke-width:0.26458332"
     xml:space="preserve"><tspan
       y="146.61772"
       x="306.7879"
       id="tspan44">③クリック</tspan></text>
  <rect
     ry="1.9286833"
     y="111.49303"
     x="148.7018"
     height="7.1474695"
     width="23.835314"
     id="rect848-6-3"
     style="fill:none;fill-opacity:1;stroke:#f30000;stroke-width:0.46710798;stroke-miterlimit:4;stroke-dasharray:none;stroke-dashoffset:0;stroke-opacity:1" />
  <path
     id="path869-5-7"
     d="m 155.61219,98.922254 c 0,-0.7512 0.69894,-1.36052 1.56061,-1.36052 h 11.02436 v 0 h 5.39326 2.03421 c 0.86376,0 1.5606,0.60932 1.5606,1.36052 v 3.401306 0 2.04077 0 c 0,0.75303 -0.69684,1.36054 -1.5606,1.36054 h -9.80589 l -10.58408,6.1035 6.40201,-6.1035 h -4.46387 c -0.86167,0 -1.56061,-0.60751 -1.56061,-1.36054 v 0 -2.04077 0 z"
     clip-path="none"
     style="fill:#ffffff;fill-opacity:1;stroke:#000000;stroke-width:0.23592456;stroke-linecap:butt;stroke-linejoin:miter;stroke-miterlimit:8;stroke-dasharray:none;stroke-opacity:1" />
  <text
     id="text888-4-5"
     y="103.33311"
     x="158.03296"
     style="font-style:normal;font-variant:normal;font-weight:normal;font-stretch:normal;font-size:4.93888903px;line-height:1.25;font-family:sans-serif;-inkscape-font-specification:'sans-serif, Normal';font-variant-ligatures:normal;font-variant-caps:normal;font-variant-numeric:normal;font-feature-settings:normal;text-align:start;letter-spacing:0px;word-spacing:0px;writing-mode:lr-tb;text-anchor:start;fill:#000000;fill-opacity:1;stroke:none;stroke-width:0.26458332"
     xml:space="preserve"><tspan
       y="103.33311"
       x="158.03296"
       id="tspan42">②入力</tspan></text>
</svg>
