<?xml version="1.0" encoding="UTF-8" standalone="no"?>
<svg
   xmlns:dc="http://purl.org/dc/elements/1.1/"
   xmlns:cc="http://creativecommons.org/ns#"
   xmlns:rdf="http://www.w3.org/1999/02/22-rdf-syntax-ns#"
   xmlns:svg="http://www.w3.org/2000/svg"
   xmlns="http://www.w3.org/2000/svg"
   xmlns:xlink="http://www.w3.org/1999/xlink"
   id="svg8"
   version="1.1"
   viewBox="0 0 1015.2001 516.00098"
   height="516"
   width="1015.2001">
  <defs
     id="defs2" />
  <metadata
     id="metadata5">
    <rdf:RDF>
      <cc:Work
         rdf:about="">
        <dc:format>image/svg+xml</dc:format>
        <dc:type
           rdf:resource="http://purl.org/dc/dcmitype/StillImage" />
        <dc:title></dc:title>
      </cc:Work>
    </rdf:RDF>
  </metadata>
  <image
     xlink:href="fig_07.png"
     y="1.0658141e-13"
     x="-0.0009245901"
     id="image4550"
     preserveAspectRatio="none"
     height="516.00098"
     width="1015.202" />
  <flowRoot
     xml:space="preserve"
     id="flowRoot38"
     style="font-style:normal;font-weight:normal;font-size:40px;line-height:1.25;font-family:sans-serif;letter-spacing:0px;word-spacing:0px;fill:#000000;fill-opacity:1;stroke:none"
     transform="matrix(0.26458333,0,0,0.26458333,37.596481,371.03715)"><flowRegion
       id="flowRegion40"><rect
         id="rect42"
         width="412.14285"
         height="129.28572"
         x="-55"
         y="124.36342" /></flowRegion><flowPara
       id="flowPara44" /></flowRoot>  <rect
     style="fill:none;fill-opacity:1;stroke:#f30000;stroke-width:2.84421062;stroke-miterlimit:4;stroke-dasharray:none;stroke-dashoffset:0;stroke-opacity:1"
     id="rect848"
     width="143.47786"
     height="44.022747"
     x="442.49896"
     y="170.90479"
     ry="11.879162" />
  <path
     style="fill:#ffffff;fill-opacity:1;stroke:#000000;stroke-width:1.65404451;stroke-linecap:butt;stroke-linejoin:miter;stroke-miterlimit:8;stroke-dasharray:none;stroke-opacity:1"
     clip-path="none"
     d="m 29.147006,393.26172 c 0,4.66293 5.53446,8.4452 12.357551,8.4452 h 87.295753 v 0 h 42.70624 16.10773 c 6.83962,0 12.35756,-3.78227 12.35756,-8.4452 v -21.11299 0 -12.66785 0 c 0,-4.67419 -5.51794,-8.44511 -12.35756,-8.44511 h -15.79867 l -123.286083,-68.2727 90.170463,68.2727 H 41.504557 c -6.823091,0 -12.357551,3.77092 -12.357551,8.44511 v 0 12.66785 0 z"
     id="path869-4" />
  <text
     xml:space="preserve"
     style="font-style:normal;font-variant:normal;font-weight:normal;font-stretch:normal;font-size:30.69151306px;line-height:1.25;font-family:sans-serif;-inkscape-font-specification:'sans-serif, Normal';font-variant-ligatures:normal;font-variant-caps:normal;font-variant-numeric:normal;font-feature-settings:normal;text-align:start;letter-spacing:0px;word-spacing:0px;writing-mode:lr-tb;text-anchor:start;fill:#000000;fill-opacity:1;stroke:none;stroke-width:2.09260297"
     x="39.184414"
     y="386.28586"
     id="text888-0"><tspan
       id="tspan33"
       x="39.184414"
       y="386.28586"
       style="stroke-width:2.09260297">①クリック</tspan></text>
  <rect
     style="fill:none;fill-opacity:1;stroke:#f30000;stroke-width:1.38966727;stroke-miterlimit:4;stroke-dasharray:none;stroke-dashoffset:0;stroke-opacity:1"
     id="rect848-9"
     width="44.984398"
     height="33.519558"
     x="3.5451283"
     y="249.2435"
     ry="9.0449657" />
  <path
     style="fill:#ffffff;fill-opacity:1;stroke:#000000;stroke-width:1.65404451;stroke-linecap:butt;stroke-linejoin:miter;stroke-miterlimit:8;stroke-dasharray:none;stroke-opacity:1"
     clip-path="none"
     d="m 337.8801,292.86369 c 0,4.66294 5.53446,8.44517 12.35755,8.44517 h 87.29577 v 0 h 42.70624 16.10773 c 6.83962,0 12.35756,-3.78223 12.35756,-8.44517 v -21.11305 0 -12.66785 0 c 0,-4.67417 -5.51794,-8.44513 -12.35756,-8.44513 h -15.79867 l -4.45612,-36.13642 -28.6595,36.13642 h -97.19545 c -6.82309,0 -12.35755,3.77096 -12.35755,8.44513 v 0 12.66785 0 z"
     id="path869-4-9" />
  <text
     xml:space="preserve"
     style="font-style:normal;font-variant:normal;font-weight:normal;font-stretch:normal;font-size:30.69151306px;line-height:1.25;font-family:sans-serif;-inkscape-font-specification:'sans-serif, Normal';font-variant-ligatures:normal;font-variant-caps:normal;font-variant-numeric:normal;font-feature-settings:normal;text-align:start;letter-spacing:0px;word-spacing:0px;writing-mode:lr-tb;text-anchor:start;fill:#000000;fill-opacity:1;stroke:none;stroke-width:2.09260297"
     x="347.91754"
     y="285.88794"
     id="text888-0-5"><tspan
       style="stroke-width:2.09260297"
       id="tspan33-1"
       x="347.91754"
       y="285.88794">③クリック</tspan></text>
  <rect
     style="fill:none;fill-opacity:1;stroke:#f30000;stroke-width:2.84421062;stroke-miterlimit:4;stroke-dasharray:none;stroke-dashoffset:0;stroke-opacity:1"
     id="rect848-6"
     width="143.47786"
     height="44.022747"
     x="53.517906"
     y="70.65509"
     ry="11.879162" />
  <path
     style="fill:#ffffff;fill-opacity:1;stroke:#000000;stroke-width:1.28168011;stroke-linecap:butt;stroke-linejoin:miter;stroke-miterlimit:8;stroke-dasharray:none;stroke-opacity:1"
     clip-path="none"
     d="m 163.07344,10.847901 c 0,-4.0160213 3.85837,-7.2735223 8.61511,-7.2735223 h 60.85857 v 0 h 29.77281 11.22956 c 4.76827,0 8.61513,3.257501 8.61513,7.2735223 v 18.183919 0 10.910365 0 c 0,4.025697 -3.84686,7.273483 -8.61513,7.273483 h -58.42064 l -28.4741,23.593383 5.38742,-23.593383 h -20.35362 c -4.75674,0 -8.61511,-3.247786 -8.61511,-7.273483 v 0 -10.910365 0 z"
     id="path869-4-9-8" />
  <text
     xml:space="preserve"
     style="font-style:normal;font-variant:normal;font-weight:normal;font-stretch:normal;font-size:30.69151306px;line-height:1.25;font-family:sans-serif;-inkscape-font-specification:'sans-serif, Normal';font-variant-ligatures:normal;font-variant-caps:normal;font-variant-numeric:normal;font-feature-settings:normal;text-align:start;letter-spacing:0px;word-spacing:0px;writing-mode:lr-tb;text-anchor:start;fill:#000000;fill-opacity:1;stroke:none;stroke-width:2.09260297"
     x="174.3013"
     y="36.413383"
     id="text888-0-5-7"><tspan
       style="stroke-width:2.09260297"
       id="tspan33-1-5"
       x="174.3013"
       y="36.413383">②入力</tspan></text>
</svg>
