<?xml version="1.0" encoding="UTF-8" standalone="no"?>
<svg
   xmlns:dc="http://purl.org/dc/elements/1.1/"
   xmlns:cc="http://creativecommons.org/ns#"
   xmlns:rdf="http://www.w3.org/1999/02/22-rdf-syntax-ns#"
   xmlns:svg="http://www.w3.org/2000/svg"
   xmlns="http://www.w3.org/2000/svg"
   xmlns:xlink="http://www.w3.org/1999/xlink"
   width="580.02808"
   height="357.66623"
   viewBox="0 0 153.46576 94.632553"
   version="1.1"
   id="svg8">
  <defs
     id="defs2">
    <marker
       style="overflow:visible"
       id="marker1192"
       refX="0"
       refY="0"
       orient="auto">
      <path
         transform="matrix(-0.8,0,0,-0.8,-10,0)"
         style="fill:#f40000;fill-opacity:1;fill-rule:evenodd;stroke:#f40000;stroke-width:1.00000003pt;stroke-opacity:1"
         d="M 0,0 5,-5 -12.5,0 5,5 Z"
         id="path860" />
    </marker>
    <marker
       style="overflow:visible"
       id="marker1147"
       refX="0"
       refY="0"
       orient="auto">
      <path
         transform="matrix(0.8,0,0,0.8,10,0)"
         style="fill:#f40000;fill-opacity:1;fill-rule:evenodd;stroke:#f40000;stroke-width:1.00000003pt;stroke-opacity:1"
         d="M 0,0 5,-5 -12.5,0 5,5 Z"
         id="path1145" />
    </marker>
    <marker
       style="overflow:visible"
       id="Arrow1Lstart"
       refX="0"
       refY="0"
       orient="auto">
      <path
         transform="matrix(0.8,0,0,0.8,10,0)"
         style="fill:#f40000;fill-opacity:1;fill-rule:evenodd;stroke:#f40000;stroke-width:1.00000003pt;stroke-opacity:1"
         d="M 0,0 5,-5 -12.5,0 5,5 Z"
         id="path857" />
    </marker>
    <marker
       orient="auto"
       refY="0"
       refX="0"
       id="Arrow1Lend"
       style="overflow:visible">
      <path
         id="path834"
         d="M 0,0 5,-5 -12.5,0 5,5 Z"
         style="fill:#ff0000;fill-opacity:1;fill-rule:evenodd;stroke:#ff0000;stroke-width:1.00000003pt;stroke-opacity:1"
         transform="matrix(-0.8,0,0,-0.8,-10,0)" />
    </marker>
  </defs>
  <metadata
     id="metadata5">
    <rdf:RDF>
      <cc:Work
         rdf:about="">
        <dc:format>image/svg+xml</dc:format>
        <dc:type
           rdf:resource="http://purl.org/dc/dcmitype/StillImage" />
        <dc:title></dc:title>
      </cc:Work>
    </rdf:RDF>
  </metadata>
  <image
     xlink:href="fig_08_02.png"
     y="4.9387732"
     x="0"
     id="image983"
     preserveAspectRatio="none"
     height="89.693764"
     width="148.69586" />
  <flowRoot
     transform="matrix(0.26458333,0,0,0.26458333,129.6613,-0.79016594)"
     style="font-style:normal;font-weight:normal;font-size:40px;line-height:1.25;font-family:sans-serif;letter-spacing:0px;word-spacing:0px;fill:#000000;fill-opacity:1;stroke:none"
     id="flowRoot38"
     xml:space="preserve"><flowRegion
       id="flowRegion40"><rect
         y="124.36342"
         x="-55"
         height="129.28572"
         width="412.14285"
         id="rect42" /></flowRegion><flowPara
       id="flowPara44" /></flowRoot>  <rect
     ry="2.2634685"
     y="71.75869"
     x="14.908367"
     height="8.3881407"
     width="17.665455"
     id="rect848-9-8"
     style="fill:none;fill-opacity:1;stroke:#f30000;stroke-width:0.43563828;stroke-miterlimit:4;stroke-dasharray:none;stroke-dashoffset:0;stroke-opacity:1" />
  <rect
     ry="2.9937394"
     y="10.881969"
     x="43.148827"
     height="11.094439"
     width="11.165476"
     id="rect848"
     style="fill:none;fill-opacity:1;stroke:#f30000;stroke-width:0.39831072;stroke-miterlimit:4;stroke-dasharray:none;stroke-dashoffset:0;stroke-opacity:1" />
  <path
     id="path869-4"
     d="m 25.130785,62.524847 c 0,-0.827732 1.012107,-1.499121 2.259871,-1.499121 h 15.964093 v 0 h 7.809843 2.945679 c 1.250786,0 2.259873,0.671389 2.259873,1.499121 v 3.747818 0 2.248697 0 c 0,0.829725 -1.009087,1.499111 -2.259873,1.499111 H 39.910625 l -7.336803,1.738216 1.280832,-1.738216 h -6.463998 c -1.247764,0 -2.259871,-0.669386 -2.259871,-1.499111 v 0 -2.248697 0 z"
     clip-path="none"
     style="fill:#ffffff;fill-opacity:1;stroke:#000000;stroke-width:0.29801431;stroke-linecap:butt;stroke-linejoin:miter;stroke-miterlimit:8;stroke-dasharray:none;stroke-opacity:1" />
  <text
     id="text888-0"
     y="67.114319"
     x="28.210056"
     style="font-style:normal;font-variant:normal;font-weight:normal;font-stretch:normal;font-size:4.23333359px;line-height:1.25;font-family:sans-serif;-inkscape-font-specification:'sans-serif, Normal';font-variant-ligatures:normal;font-variant-caps:normal;font-variant-numeric:normal;font-feature-settings:normal;text-align:start;letter-spacing:0px;word-spacing:0px;writing-mode:lr-tb;text-anchor:start;fill:#000000;fill-opacity:1;stroke:none;stroke-width:0.26458335"
     xml:space="preserve"><tspan
       y="67.114319"
       x="28.210056"
       id="tspan28-1"
       style="stroke-width:0.26458335">①物体を選ぶ</tspan></text>
  <path
     id="path869-4-6"
     d="m 46.871267,1.6481282 c 0,-0.82773204 1.012107,-1.49912104 2.259871,-1.49912104 h 15.964093 v 0 h 7.809843 2.945678 c 1.25079,0 2.25987,0.671389 2.25987,1.49912104 v 3.7478179 0 2.2486968 0 c 0,0.829725 -1.00908,1.499111 -2.25987,1.499111 H 61.651107 L 54.314304,10.88197 55.595136,9.1437539 h -6.463998 c -1.247764,0 -2.259871,-0.669386 -2.259871,-1.499111 v 0 -2.2486968 0 z"
     clip-path="none"
     style="fill:#ffffff;fill-opacity:1;stroke:#000000;stroke-width:0.29801431;stroke-linecap:butt;stroke-linejoin:miter;stroke-miterlimit:8;stroke-dasharray:none;stroke-opacity:1" />
  <text
     id="text888-0-4"
     y="6.2376003"
     x="49.950539"
     style="font-style:normal;font-variant:normal;font-weight:normal;font-stretch:normal;font-size:4.23333359px;line-height:1.25;font-family:sans-serif;-inkscape-font-specification:'sans-serif, Normal';font-variant-ligatures:normal;font-variant-caps:normal;font-variant-numeric:normal;font-feature-settings:normal;text-align:start;letter-spacing:0px;word-spacing:0px;writing-mode:lr-tb;text-anchor:start;fill:#000000;fill-opacity:1;stroke:none;stroke-width:0.26458335"
     xml:space="preserve"><tspan
       y="6.2376003"
       x="49.950539"
       id="tspan28-1-7"
       style="stroke-width:0.26458335">②回転ツール</tspan></text>
  <rect
     ry="2.9937396"
     y="68.495888"
     x="120.16224"
     height="11.094439"
     width="11.165477"
     id="rect848-1"
     style="fill:none;fill-opacity:1;stroke:#f30000;stroke-width:0.39831072;stroke-miterlimit:4;stroke-dasharray:none;stroke-dashoffset:0;stroke-opacity:1" />
  <path
     id="path869-4-6-2"
     d="m 114.90231,59.275183 c 0,-0.824952 1.24404,-1.494086 2.77777,-1.494086 h 19.62262 v 0 h 9.59966 3.62074 c 1.53744,0 2.77777,0.669134 2.77777,1.494086 v 3.73523 0 2.241144 0 c 0,0.826938 -1.24033,1.494076 -2.77777,1.494076 h -17.45382 l -9.0182,1.732379 1.57437,-1.732379 h -7.94537 c -1.53373,0 -2.77777,-0.667138 -2.77777,-1.494076 v 0 -2.241144 0 z"
     clip-path="none"
     style="fill:#ffffff;fill-opacity:1;stroke:#000000;stroke-width:0.3298474;stroke-linecap:butt;stroke-linejoin:miter;stroke-miterlimit:8;stroke-dasharray:none;stroke-opacity:1" />
  <text
     id="text888-0-4-5"
     y="63.851517"
     x="117.96824"
     style="font-style:normal;font-variant:normal;font-weight:normal;font-stretch:normal;font-size:4.23333359px;line-height:1.25;font-family:sans-serif;-inkscape-font-specification:'sans-serif, Normal';font-variant-ligatures:normal;font-variant-caps:normal;font-variant-numeric:normal;font-feature-settings:normal;text-align:start;letter-spacing:0px;word-spacing:0px;writing-mode:lr-tb;text-anchor:start;fill:#000000;fill-opacity:1;stroke:none;stroke-width:0.26458335"
     xml:space="preserve"><tspan
       y="63.851517"
       x="117.96824"
       id="tspan28-1-7-0"
       style="stroke-width:0.26458335">③円周をドラッグ</tspan></text>
  <flowRoot
     xml:space="preserve"
     id="flowRoot986"
     style="font-style:normal;font-weight:normal;font-size:40px;line-height:1.25;font-family:sans-serif;letter-spacing:0px;word-spacing:0px;fill:#000000;fill-opacity:1;stroke:none"
     transform="matrix(0.26458338,0,0,0.26458338,-0.38924703,4.8245314)"><flowRegion
       id="flowRegion988"><rect
         id="rect990"
         width="325.15225"
         height="138.13152"
         x="-96.226448"
         y="-13.984899" /></flowRegion><flowPara
       id="flowPara992" /></flowRoot></svg>
