<?xml version="1.0" encoding="UTF-8" standalone="no"?>
<svg
   xmlns:dc="http://purl.org/dc/elements/1.1/"
   xmlns:cc="http://creativecommons.org/ns#"
   xmlns:rdf="http://www.w3.org/1999/02/22-rdf-syntax-ns#"
   xmlns:svg="http://www.w3.org/2000/svg"
   xmlns="http://www.w3.org/2000/svg"
   xmlns:xlink="http://www.w3.org/1999/xlink"
   id="svg8"
   version="1.1"
   viewBox="0 0 167.74584 137.05421"
   height="518"
   width="634">
  <defs
     id="defs2">
    <marker
       orient="auto"
       refY="0"
       refX="0"
       id="marker1192"
       style="overflow:visible">
      <path
         id="path860"
         d="M 0,0 5,-5 -12.5,0 5,5 Z"
         style="fill:#f40000;fill-opacity:1;fill-rule:evenodd;stroke:#f40000;stroke-width:1.00000003pt;stroke-opacity:1"
         transform="matrix(-0.8,0,0,-0.8,-10,0)" />
    </marker>
    <marker
       orient="auto"
       refY="0"
       refX="0"
       id="marker1147"
       style="overflow:visible">
      <path
         id="path1145"
         d="M 0,0 5,-5 -12.5,0 5,5 Z"
         style="fill:#f40000;fill-opacity:1;fill-rule:evenodd;stroke:#f40000;stroke-width:1.00000003pt;stroke-opacity:1"
         transform="matrix(0.8,0,0,0.8,10,0)" />
    </marker>
    <marker
       orient="auto"
       refY="0"
       refX="0"
       id="Arrow1Lstart"
       style="overflow:visible">
      <path
         id="path857"
         d="M 0,0 5,-5 -12.5,0 5,5 Z"
         style="fill:#f40000;fill-opacity:1;fill-rule:evenodd;stroke:#f40000;stroke-width:1.00000003pt;stroke-opacity:1"
         transform="matrix(0.8,0,0,0.8,10,0)" />
    </marker>
    <marker
       style="overflow:visible"
       id="Arrow1Lend"
       refX="0"
       refY="0"
       orient="auto">
      <path
         transform="matrix(-0.8,0,0,-0.8,-10,0)"
         style="fill:#ff0000;fill-opacity:1;fill-rule:evenodd;stroke:#ff0000;stroke-width:1.00000003pt;stroke-opacity:1"
         d="M 0,0 5,-5 -12.5,0 5,5 Z"
         id="path834" />
    </marker>
  </defs>
  <metadata
     id="metadata5">
    <rdf:RDF>
      <cc:Work
         rdf:about="">
        <dc:format>image/svg+xml</dc:format>
        <dc:type
           rdf:resource="http://purl.org/dc/dcmitype/StillImage" />
        <dc:title></dc:title>
      </cc:Work>
    </rdf:RDF>
  </metadata>
  <image
     xlink:href="fig_06.png"
     y="0"
     x="0"
     id="image41"
     preserveAspectRatio="none"
     height="137.05418"
     width="167.74586" />
  <flowRoot
     xml:space="preserve"
     id="flowRoot38"
     style="font-style:normal;font-weight:normal;font-size:40px;line-height:1.25;font-family:sans-serif;letter-spacing:0px;word-spacing:0px;fill:#000000;fill-opacity:1;stroke:none"
     transform="matrix(0.26458333,0,0,0.26458333,140.491,-3.1468388)"><flowRegion
       id="flowRegion40"><rect
         id="rect42"
         width="412.14285"
         height="129.28572"
         x="-55"
         y="124.36342" /></flowRegion><flowPara
       id="flowPara44" /></flowRoot>  <rect
     style="fill:none;fill-opacity:1;stroke:#f30000;stroke-width:0.43563828;stroke-miterlimit:4;stroke-dasharray:none;stroke-dashoffset:0;stroke-opacity:1"
     id="rect848-9-8"
     width="17.665455"
     height="8.3881407"
     x="13.213423"
     y="68.534027"
     ry="2.2634685" />
  <rect
     style="fill:none;fill-opacity:1;stroke:#f30000;stroke-width:0.89715189;stroke-miterlimit:4;stroke-dasharray:none;stroke-dashoffset:0;stroke-opacity:1"
     id="rect848"
     width="26.476423"
     height="23.7362"
     x="133.53728"
     y="111.23873"
     ry="6.4050107" />
  <path
     style="fill:#ffffff;fill-opacity:1;stroke:#000000;stroke-width:0.2643477;stroke-linecap:butt;stroke-linejoin:miter;stroke-miterlimit:8;stroke-dasharray:none;stroke-opacity:1"
     clip-path="none"
     d="m 61.648305,83.575421 c 0,-0.83073 0.793475,-1.50455 1.771702,-1.50455 h 12.515587 v 0 h 6.122789 2.309364 c 0.980596,0 1.771703,0.67382 1.771703,1.50455 v 3.76139 0 2.25684 0 c 0,0.83273 -0.791107,1.50454 -1.771703,1.50454 h -11.13229 l -5.751933,1.74451 1.004151,-1.74451 h -5.067668 c -0.978227,0 -1.771702,-0.67181 -1.771702,-1.50454 v 0 -2.25684 0 z"
     id="path869-4" />
  <text
     xml:space="preserve"
     style="font-style:normal;font-variant:normal;font-weight:normal;font-stretch:normal;font-size:4.23333359px;line-height:1.25;font-family:sans-serif;-inkscape-font-specification:'sans-serif, Normal';font-variant-ligatures:normal;font-variant-caps:normal;font-variant-numeric:normal;font-feature-settings:normal;text-align:start;letter-spacing:0px;word-spacing:0px;writing-mode:lr-tb;text-anchor:start;fill:#000000;fill-opacity:1;stroke:none;stroke-width:0.26458335"
     x="64.74128"
     y="88.179062"
     id="text888-0"><tspan
       style="stroke-width:0.26458335"
       id="tspan28-1"
       x="64.74128"
       y="88.179062">ドラッグ</tspan></text>
  <path
     style="fill:none;stroke:#f40000;stroke-width:0.79375011;stroke-linecap:butt;stroke-linejoin:miter;stroke-miterlimit:4;stroke-dasharray:none;stroke-opacity:1;marker-end:url(#marker1192)"
     d="M 133.65379,121.44856 C 123.3988,119.56499 30.878878,76.92216 30.878878,76.92216"
     id="path44" />
</svg>
