<?xml version="1.0" encoding="UTF-8" standalone="no"?>
<svg
   xmlns:dc="http://purl.org/dc/elements/1.1/"
   xmlns:cc="http://creativecommons.org/ns#"
   xmlns:rdf="http://www.w3.org/1999/02/22-rdf-syntax-ns#"
   xmlns:svg="http://www.w3.org/2000/svg"
   xmlns="http://www.w3.org/2000/svg"
   xmlns:xlink="http://www.w3.org/1999/xlink"
   id="svg8"
   version="1.1"
   viewBox="0 0 190.50001 139.70004"
   height="528"
   width="720">
  <defs
     id="defs2">
    <marker
       style="overflow:visible"
       id="Arrow1Lend"
       refX="0"
       refY="0"
       orient="auto">
      <path
         transform="matrix(-0.8,0,0,-0.8,-10,0)"
         style="fill:#ff0000;fill-opacity:1;fill-rule:evenodd;stroke:#ff0000;stroke-width:1.00000003pt;stroke-opacity:1"
         d="M 0,0 5,-5 -12.5,0 5,5 Z"
         id="path834" />
    </marker>
  </defs>
  <metadata
     id="metadata5">
    <rdf:RDF>
      <cc:Work
         rdf:about="">
        <dc:format>image/svg+xml</dc:format>
        <dc:type
           rdf:resource="http://purl.org/dc/dcmitype/StillImage" />
        <dc:title></dc:title>
      </cc:Work>
    </rdf:RDF>
  </metadata>
  <image
     xlink:href="fig_03.png"
     y="-2.8421709e-14"
     x="0"
     id="image34"
     preserveAspectRatio="none"
     height="139.70003"
     width="190.50003" />
  <flowRoot
     xml:space="preserve"
     id="flowRoot38"
     style="font-style:normal;font-weight:normal;font-size:40px;line-height:1.25;font-family:sans-serif;letter-spacing:0px;word-spacing:0px;fill:#000000;fill-opacity:1;stroke:none"
     transform="matrix(0.26458333,0,0,0.26458333,130.31575,-8.335365)"><flowRegion
       id="flowRegion40"><rect
         id="rect42"
         width="412.14285"
         height="129.28572"
         x="-55"
         y="124.36342" /></flowRegion><flowPara
       id="flowPara44" /></flowRoot>  <rect
     style="fill:none;fill-opacity:1;stroke:#f30000;stroke-width:0.32354164;stroke-miterlimit:4;stroke-dasharray:none;stroke-dashoffset:0;stroke-opacity:1"
     id="rect848-9-8"
     width="9.6154108"
     height="8.5002375"
     x="56.977825"
     y="123.14515"
     ry="2.2937167" />
  <rect
     style="fill:none;fill-opacity:1;stroke:#f30000;stroke-width:0.42605248;stroke-miterlimit:4;stroke-dasharray:none;stroke-dashoffset:0;stroke-opacity:1"
     id="rect848"
     width="29.877522"
     height="4.743732"
     x="2.1593575"
     y="111.25608"
     ry="1.2800555" />
  <path
     style="fill:#ffffff;fill-opacity:1;stroke:#000000;stroke-width:0.27837515;stroke-linecap:butt;stroke-linejoin:miter;stroke-miterlimit:8;stroke-dasharray:none;stroke-opacity:1"
     clip-path="none"
     d="m 7.5290466,101.83275 c 0,-0.82949 0.881234,-1.50231 1.9676542,-1.50231 H 23.396526 v 0 h 6.799977 2.564782 c 1.089051,0 1.967656,0.67282 1.967656,1.50231 v 3.75578 0 2.25347 0 c 0,0.83149 -0.878605,1.5023 -1.967656,1.5023 H 20.397751 l -6.388104,1.7419 1.115211,-1.7419 H 9.4967008 c -1.0864202,0 -1.9676542,-0.67081 -1.9676542,-1.5023 v 0 -2.25347 0 z"
     id="path869-4" />
  <text
     xml:space="preserve"
     style="font-style:normal;font-variant:normal;font-weight:normal;font-stretch:normal;font-size:4.23333359px;line-height:1.25;font-family:sans-serif;-inkscape-font-specification:'sans-serif, Normal';font-variant-ligatures:normal;font-variant-caps:normal;font-variant-numeric:normal;font-feature-settings:normal;text-align:start;letter-spacing:0px;word-spacing:0px;writing-mode:lr-tb;text-anchor:start;fill:#000000;fill-opacity:1;stroke:none;stroke-width:0.26458335"
     x="10.616037"
     y="106.43053"
     id="text888-0"><tspan
       style="stroke-width:0.26458335"
       id="tspan28-1"
       x="10.616037"
       y="106.43053">①クリック</tspan></text>
  <path
     style="fill:#ffffff;fill-opacity:1;stroke:#000000;stroke-width:0.29167002;stroke-linecap:butt;stroke-linejoin:miter;stroke-miterlimit:8;stroke-dasharray:none;stroke-opacity:1"
     clip-path="none"
     d="m 55.504018,113.24261 c 0,-0.82831 0.968784,-1.50018 2.163146,-1.50018 h 15.280849 v 0 h 7.475592 2.819604 c 1.197253,0 2.163146,0.67187 2.163146,1.50018 v 3.75046 0 2.25028 0 c 0,0.83032 -0.965893,1.50018 -2.163146,1.50018 h -13.59192 l -7.022791,1.73943 1.226012,-1.73943 h -6.187346 c -1.194362,0 -2.163146,-0.66986 -2.163146,-1.50018 v 0 -2.25028 0 z"
     id="path869-4-2" />
  <text
     xml:space="preserve"
     style="font-style:normal;font-variant:normal;font-weight:normal;font-stretch:normal;font-size:4.23333359px;line-height:1.25;font-family:sans-serif;-inkscape-font-specification:'sans-serif, Normal';font-variant-ligatures:normal;font-variant-caps:normal;font-variant-numeric:normal;font-feature-settings:normal;text-align:start;letter-spacing:0px;word-spacing:0px;writing-mode:lr-tb;text-anchor:start;fill:#000000;fill-opacity:1;stroke:none;stroke-width:0.26458335"
     x="58.58543"
     y="117.83485"
     id="text888-0-4"><tspan
       style="stroke-width:0.26458335"
       id="tspan28-1-7"
       x="58.58543"
       y="117.83485">②右クリック</tspan></text>
</svg>
