<?xml version="1.0" encoding="UTF-8" standalone="no"?>
<svg
   xmlns:dc="http://purl.org/dc/elements/1.1/"
   xmlns:cc="http://creativecommons.org/ns#"
   xmlns:rdf="http://www.w3.org/1999/02/22-rdf-syntax-ns#"
   xmlns:svg="http://www.w3.org/2000/svg"
   xmlns="http://www.w3.org/2000/svg"
   xmlns:xlink="http://www.w3.org/1999/xlink"
   width="854.00714"
   height="406.26776"
   viewBox="0 0 225.95607 107.49171"
   version="1.1"
   id="svg8">
  <defs
     id="defs2">
    <marker
       orient="auto"
       refY="0"
       refX="0"
       id="Arrow1Lend"
       style="overflow:visible">
      <path
         id="path834"
         d="M 0,0 5,-5 -12.5,0 5,5 Z"
         style="fill:#ff0000;fill-opacity:1;fill-rule:evenodd;stroke:#ff0000;stroke-width:1.00000003pt;stroke-opacity:1"
         transform="matrix(-0.8,0,0,-0.8,-10,0)" />
    </marker>
  </defs>
  <metadata
     id="metadata5">
    <rdf:RDF>
      <cc:Work
         rdf:about="">
        <dc:format>image/svg+xml</dc:format>
        <dc:type
           rdf:resource="http://purl.org/dc/dcmitype/StillImage" />
        <dc:title></dc:title>
      </cc:Work>
    </rdf:RDF>
  </metadata>
  <image
     xlink:href="fig_07.png"
     y="0.32115889"
     x="-4.4408921e-16"
     id="image851"
     preserveAspectRatio="none"
     height="107.17054"
     width="225.28096" />
  <flowRoot
     transform="matrix(0.26458333,0,0,0.26458333,109.35591,-64.699484)"
     style="font-style:normal;font-weight:normal;font-size:40px;line-height:1.25;font-family:sans-serif;letter-spacing:0px;word-spacing:0px;fill:#000000;fill-opacity:1;stroke:none"
     id="flowRoot38"
     xml:space="preserve"><flowRegion
       id="flowRegion40"><rect
         y="124.36342"
         x="-55"
         height="129.28572"
         width="412.14285"
         id="rect42" /></flowRegion><flowPara
       id="flowPara44" /></flowRoot>  <rect
     ry="3.2654154"
     y="92.200043"
     x="135.93829"
     height="12.101237"
     width="50.358982"
     id="rect848-9-2"
     style="fill:none;fill-opacity:1;stroke:#f30000;stroke-width:0.88345432;stroke-miterlimit:4;stroke-dasharray:none;stroke-dashoffset:0;stroke-opacity:1" />
  <path
     id="path869-4-4"
     d="m 172.22832,79.624234 c 0,-0.830026 0.83915,-1.503281 1.87371,-1.503281 h 13.23623 v 0 h 6.47535 2.44233 c 1.03705,0 1.87372,0.673255 1.87372,1.503281 v 3.758208 0 2.254926 0 c 0,0.832028 -0.83667,1.503271 -1.87372,1.503271 h -11.77329 l -6.08312,1.743027 1.06196,-1.743027 h -5.35946 c -1.03456,0 -1.87371,-0.671243 -1.87371,-1.503271 v 0 -2.254926 0 z"
     clip-path="none"
     style="fill:#ffffff;fill-opacity:1;stroke:#000000;stroke-width:0.27173668;stroke-linecap:butt;stroke-linejoin:miter;stroke-miterlimit:8;stroke-dasharray:none;stroke-opacity:1" />
  <text
     id="text888-0-6"
     y="84.224548"
     x="175.31903"
     style="font-style:normal;font-variant:normal;font-weight:normal;font-stretch:normal;font-size:4.23333406px;line-height:1.25;font-family:sans-serif;-inkscape-font-specification:'sans-serif, Normal';font-variant-ligatures:normal;font-variant-caps:normal;font-variant-numeric:normal;font-feature-settings:normal;text-align:start;letter-spacing:0px;word-spacing:0px;writing-mode:lr-tb;text-anchor:start;fill:#000000;fill-opacity:1;stroke:none;stroke-width:0.26458335"
     xml:space="preserve"><tspan
       id="tspan29"
       x="175.31903"
       y="84.224548">①クリック</tspan></text>
  <path
     id="path869-4-4-3"
     d="m 3.1795151,88.714449 c 0,0.88088 0.83915,1.59539 1.87371,1.59539 H 18.289455 v 0 h 6.47535 2.44233 c 1.03705,0 1.87372,-0.71451 1.87372,-1.59539 v -3.988496 0 -2.3931 0 c 0,-0.883012 -0.83667,-1.595382 -1.87372,-1.595382 H 15.433845 L 9.3507251,78.887648 10.412685,80.737471 H 5.0532251 c -1.03456,0 -1.87371,0.71237 -1.87371,1.595382 v 0 2.3931 0 z"
     clip-path="none"
     style="fill:#ffffff;fill-opacity:1;stroke:#000000;stroke-width:0.27993819;stroke-linecap:butt;stroke-linejoin:miter;stroke-miterlimit:8;stroke-dasharray:none;stroke-opacity:1" />
  <text
     id="text888-0-6-1"
     y="87.139458"
     x="5.741066"
     style="font-style:normal;font-variant:normal;font-weight:normal;font-stretch:normal;font-size:4.23333406px;line-height:1.25;font-family:sans-serif;-inkscape-font-specification:'sans-serif, Normal';font-variant-ligatures:normal;font-variant-caps:normal;font-variant-numeric:normal;font-feature-settings:normal;text-align:start;letter-spacing:0px;word-spacing:0px;writing-mode:lr-tb;text-anchor:start;fill:#000000;fill-opacity:1;stroke:none;stroke-width:0.26458335"
     xml:space="preserve"><tspan
       id="tspan91"
       x="5.741066"
       y="87.139458">②クリック</tspan></text>
  <rect
     ry="2.6770132"
     y="68.597656"
     x="0.42211151"
     height="9.9206896"
     width="12.93522"
     id="rect848-9-2-6"
     style="fill:none;fill-opacity:1;stroke:#f30000;stroke-width:0.40540451;stroke-miterlimit:4;stroke-dasharray:none;stroke-dashoffset:0;stroke-opacity:1" />
  <path
     id="path869-4-4-3-6"
     d="m 58.707421,89.31994 c 0,0.88088 0.83915,1.59539 1.87371,1.59539 h 13.236231 v 0 h 6.47535 2.44233 c 1.037051,0 1.873719,-0.71451 1.873719,-1.59539 v -3.98849 0 -2.3931 0 c 0,-0.88301 -0.836668,-1.59538 -1.873719,-1.59538 h -11.77329 l -6.08312,-1.84983 1.06196,1.84983 h -5.359461 c -1.03456,0 -1.87371,0.71237 -1.87371,1.59538 v 0 2.3931 0 z"
     clip-path="none"
     style="fill:#ffffff;fill-opacity:1;stroke:#000000;stroke-width:0.27993819;stroke-linecap:butt;stroke-linejoin:miter;stroke-miterlimit:8;stroke-dasharray:none;stroke-opacity:1" />
  <text
     id="text888-0-6-1-6"
     y="87.744949"
     x="61.798141"
     style="font-style:normal;font-variant:normal;font-weight:normal;font-stretch:normal;font-size:4.23333406px;line-height:1.25;font-family:sans-serif;-inkscape-font-specification:'sans-serif, Normal';font-variant-ligatures:normal;font-variant-caps:normal;font-variant-numeric:normal;font-feature-settings:normal;text-align:start;letter-spacing:0px;word-spacing:0px;writing-mode:lr-tb;text-anchor:start;fill:#000000;fill-opacity:1;stroke:none;stroke-width:0.26458335"
     xml:space="preserve"><tspan
       id="tspan93"
       x="61.798141"
       y="87.744949">③クリック</tspan></text>
  <rect
     ry="2.6770132"
     y="69.203148"
     x="55.95002"
     height="9.9206896"
     width="12.93522"
     id="rect848-9-2-6-3"
     style="fill:none;fill-opacity:1;stroke:#f30000;stroke-width:0.40540451;stroke-miterlimit:4;stroke-dasharray:none;stroke-dashoffset:0;stroke-opacity:1" />
</svg>
