<?xml version="1.0" encoding="UTF-8" standalone="no"?>
<svg
   xmlns:dc="http://purl.org/dc/elements/1.1/"
   xmlns:cc="http://creativecommons.org/ns#"
   xmlns:rdf="http://www.w3.org/1999/02/22-rdf-syntax-ns#"
   xmlns:svg="http://www.w3.org/2000/svg"
   xmlns="http://www.w3.org/2000/svg"
   xmlns:xlink="http://www.w3.org/1999/xlink"
   id="svg8"
   version="1.1"
   viewBox="0 0 255.15209 172.77296"
   height="653"
   width="964.35431">
  <defs
     id="defs2">
    <marker
       style="overflow:visible"
       id="Arrow1Lend"
       refX="0"
       refY="0"
       orient="auto">
      <path
         transform="matrix(-0.8,0,0,-0.8,-10,0)"
         style="fill:#ff0000;fill-opacity:1;fill-rule:evenodd;stroke:#ff0000;stroke-width:1.00000003pt;stroke-opacity:1"
         d="M 0,0 5,-5 -12.5,0 5,5 Z"
         id="path834" />
    </marker>
  </defs>
  <metadata
     id="metadata5">
    <rdf:RDF>
      <cc:Work
         rdf:about="">
        <dc:format>image/svg+xml</dc:format>
        <dc:type
           rdf:resource="http://purl.org/dc/dcmitype/StillImage" />
        <dc:title></dc:title>
      </cc:Work>
    </rdf:RDF>
  </metadata>
  <g
     transform="translate(66.205688,-17.708281)"
     id="layer1">
    <image
       xlink:href="fig_07.png"
       y="17.708281"
       x="-66.205688"
       id="image37"
       preserveAspectRatio="none"
       height="172.77293"
       width="251.3542" />
    <flowRoot
       transform="matrix(0.26458333,0,0,0.26458333,11.496524,27.015234)"
       style="font-style:normal;font-weight:normal;font-size:40px;line-height:1.25;font-family:sans-serif;letter-spacing:0px;word-spacing:0px;fill:#000000;fill-opacity:1;stroke:none"
       id="flowRoot38"
       xml:space="preserve"><flowRegion
         id="flowRegion40"><rect
           y="124.36342"
           x="-55"
           height="129.28572"
           width="412.14285"
           id="rect42" /></flowRegion><flowPara
         id="flowPara44" /></flowRoot>    <rect
       ry="2.2139146"
       y="36.916889"
       x="104.29848"
       height="8.2045012"
       width="36.497082"
       id="rect848-9-8"
       style="fill:none;fill-opacity:1;stroke:#f30000;stroke-width:0.61927831;stroke-miterlimit:4;stroke-dasharray:none;stroke-dashoffset:0;stroke-opacity:1" />
    <rect
       ry="7.2110033"
       y="59.569443"
       x="112.27804"
       height="26.72311"
       width="75.862717"
       id="rect848-9-2"
       style="fill:none;fill-opacity:1;stroke:#f30000;stroke-width:1.61134458;stroke-miterlimit:4;stroke-dasharray:none;stroke-dashoffset:0;stroke-opacity:1" />
    <rect
       ry="1.2800555"
       y="53.962135"
       x="-50.320805"
       height="4.743732"
       width="29.877522"
       id="rect848"
       style="fill:none;fill-opacity:1;stroke:#f30000;stroke-width:0.42605248;stroke-miterlimit:4;stroke-dasharray:none;stroke-dashoffset:0;stroke-opacity:1" />
    <path
       id="path869-4"
       d="m -44.951116,44.538807 c 0,-0.82949 0.881234,-1.50231 1.967654,-1.50231 h 13.899825 v 0 h 6.799977 2.564782 c 1.089051,0 1.967656,0.67282 1.967656,1.50231 v 3.75578 0 2.25347 0 c 0,0.83149 -0.878605,1.5023 -1.967656,1.5023 h -12.363534 l -6.388104,1.7419 1.115211,-1.7419 h -5.628157 c -1.08642,0 -1.967654,-0.67081 -1.967654,-1.5023 v 0 -2.25347 0 z"
       clip-path="none"
       style="fill:#ffffff;fill-opacity:1;stroke:#000000;stroke-width:0.27837515;stroke-linecap:butt;stroke-linejoin:miter;stroke-miterlimit:8;stroke-dasharray:none;stroke-opacity:1" />
    <text
       id="text888-0"
       y="49.136589"
       x="-41.864124"
       style="font-style:normal;font-variant:normal;font-weight:normal;font-stretch:normal;font-size:4.23333359px;line-height:1.25;font-family:sans-serif;-inkscape-font-specification:'sans-serif, Normal';font-variant-ligatures:normal;font-variant-caps:normal;font-variant-numeric:normal;font-feature-settings:normal;text-align:start;letter-spacing:0px;word-spacing:0px;writing-mode:lr-tb;text-anchor:start;fill:#000000;fill-opacity:1;stroke:none;stroke-width:0.26458335"
       xml:space="preserve"><tspan
         y="49.136589"
         x="-41.864124"
         id="tspan28-1"
         style="stroke-width:0.26458335">①クリック</tspan></text>
    <path
       id="path869-4-4"
       d="m 148.77025,49.927405 c 0,-0.82949 0.88123,-1.50231 1.96765,-1.50231 h 13.89983 v 0 h 6.79998 2.56478 c 1.08905,0 1.96766,0.67282 1.96766,1.50231 v 3.75578 0 2.25347 0 c 0,0.83149 -0.87861,1.5023 -1.96766,1.5023 h -12.36354 l -6.3881,1.7419 1.11521,-1.7419 h -5.62816 c -1.08642,0 -1.96765,-0.67081 -1.96765,-1.5023 v 0 -2.25347 0 z"
       clip-path="none"
       style="fill:#ffffff;fill-opacity:1;stroke:#000000;stroke-width:0.27837515;stroke-linecap:butt;stroke-linejoin:miter;stroke-miterlimit:8;stroke-dasharray:none;stroke-opacity:1" />
    <text
       id="text888-0-6"
       y="54.525188"
       x="151.85724"
       style="font-style:normal;font-variant:normal;font-weight:normal;font-stretch:normal;font-size:4.23333397px;line-height:1.25;font-family:sans-serif;-inkscape-font-specification:'sans-serif, Normal';font-variant-ligatures:normal;font-variant-caps:normal;font-variant-numeric:normal;font-feature-settings:normal;text-align:start;letter-spacing:0px;word-spacing:0px;writing-mode:lr;text-anchor:start;fill:#000000;fill-opacity:1;stroke:none;stroke-width:0.26458335;"
       xml:space="preserve"><tspan
         id="tspan63">②数値入力</tspan></text>
  </g>
</svg>
