<?xml version="1.0" encoding="UTF-8" standalone="no"?>
<svg
   xmlns:dc="http://purl.org/dc/elements/1.1/"
   xmlns:cc="http://creativecommons.org/ns#"
   xmlns:rdf="http://www.w3.org/1999/02/22-rdf-syntax-ns#"
   xmlns:svg="http://www.w3.org/2000/svg"
   xmlns="http://www.w3.org/2000/svg"
   xmlns:xlink="http://www.w3.org/1999/xlink"
   id="svg8"
   version="1.1"
   viewBox="0 0 166.42399 173.56672"
   height="656"
   width="629.00403">
  <defs
     id="defs2">
    <marker
       style="overflow:visible"
       id="Arrow1Lend"
       refX="0"
       refY="0"
       orient="auto">
      <path
         transform="matrix(-0.8,0,0,-0.8,-10,0)"
         style="fill:#ff0000;fill-opacity:1;fill-rule:evenodd;stroke:#ff0000;stroke-width:1.00000003pt;stroke-opacity:1"
         d="M 0,0 5,-5 -12.5,0 5,5 Z"
         id="path834" />
    </marker>
  </defs>
  <metadata
     id="metadata5">
    <rdf:RDF>
      <cc:Work
         rdf:about="">
        <dc:format>image/svg+xml</dc:format>
        <dc:type
           rdf:resource="http://purl.org/dc/dcmitype/StillImage" />
        <dc:title></dc:title>
      </cc:Work>
    </rdf:RDF>
  </metadata>
  <image
     xlink:href="fig_08.png"
     y="1.08089e-06"
     x="0"
     id="image847"
     preserveAspectRatio="none"
     height="173.5667"
     width="165.6292" />
  <flowRoot
     xml:space="preserve"
     id="flowRoot38"
     style="font-style:normal;font-weight:normal;font-size:40px;line-height:1.25;font-family:sans-serif;letter-spacing:0px;word-spacing:0px;fill:#000000;fill-opacity:1;stroke:none"
     transform="matrix(0.26458333,0,0,0.26458333,88.661941,-41.226925)"><flowRegion
       id="flowRegion40"><rect
         id="rect42"
         width="412.14285"
         height="129.28572"
         x="-55"
         y="124.36342" /></flowRegion><flowPara
       id="flowPara44" /></flowRoot>  <rect
     style="fill:none;fill-opacity:1;stroke:#f30000;stroke-width:0.48172489;stroke-miterlimit:4;stroke-dasharray:none;stroke-dashoffset:0;stroke-opacity:1"
     id="rect848-9-2"
     width="19.52009"
     height="9.2822847"
     x="64.15667"
     y="19.173328"
     ry="2.504745" />
  <path
     style="fill:#ffffff;fill-opacity:1;stroke:#000000;stroke-width:0.27173668;stroke-linecap:butt;stroke-linejoin:miter;stroke-miterlimit:8;stroke-dasharray:none;stroke-opacity:1"
     clip-path="none"
     d="m 74.189101,8.915053 c 0,-0.830026 0.839147,-1.503281 1.873701,-1.503281 h 13.236209 v 0 h 6.47535 2.44233 c 1.03705,0 1.873719,0.673255 1.873719,1.503281 v 3.758208 0 2.254925 0 c 0,0.832028 -0.836669,1.503271 -1.873719,1.503271 h -11.77329 l -6.08312,1.743027 1.06196,-1.743027 h -5.359439 c -1.034554,0 -1.873701,-0.671243 -1.873701,-1.503271 v 0 -2.254925 0 z"
     id="path869-4-4" />
  <text
     xml:space="preserve"
     style="font-style:normal;font-variant:normal;font-weight:normal;font-stretch:normal;font-size:4.23333406px;line-height:1.25;font-family:sans-serif;-inkscape-font-specification:'sans-serif, Normal';font-variant-ligatures:normal;font-variant-caps:normal;font-variant-numeric:normal;font-feature-settings:normal;text-align:start;letter-spacing:0px;word-spacing:0px;writing-mode:lr-tb;text-anchor:start;fill:#000000;fill-opacity:1;stroke:none;stroke-width:0.26458335"
     x="77.279961"
     y="13.515368"
     id="text888-0-6"><tspan
       y="13.515368"
       x="77.279961"
       id="tspan29">①クリック</tspan></text>
  <path
     style="fill:#ffffff;fill-opacity:1;stroke:#000000;stroke-width:0.27993819;stroke-linecap:butt;stroke-linejoin:miter;stroke-miterlimit:8;stroke-dasharray:none;stroke-opacity:1"
     clip-path="none"
     d="m 2.960105,44.230606 c 0,0.88088 0.83915,1.59539 1.87371,1.59539 h 13.23623 v 0 h 6.47535 2.44233 c 1.03705,0 1.87372,-0.71451 1.87372,-1.59539 v -3.988496 0 -2.3931 0 c 0,-0.883012 -0.83667,-1.595382 -1.87372,-1.595382 h -11.77329 l -6.08312,-1.849823 1.06196,1.849823 h -5.35946 c -1.03456,0 -1.87371,0.71237 -1.87371,1.595382 v 0 2.3931 0 z"
     id="path869-4-4-3" />
  <text
     xml:space="preserve"
     style="font-style:normal;font-variant:normal;font-weight:normal;font-stretch:normal;font-size:4.23333406px;line-height:1.25;font-family:sans-serif;-inkscape-font-specification:'sans-serif, Normal';font-variant-ligatures:normal;font-variant-caps:normal;font-variant-numeric:normal;font-feature-settings:normal;text-align:start;letter-spacing:0px;word-spacing:0px;writing-mode:lr-tb;text-anchor:start;fill:#000000;fill-opacity:1;stroke:none;stroke-width:0.26458335"
     x="5.5216565"
     y="42.655617"
     id="text888-0-6-1"><tspan
       y="42.655617"
       x="5.5216565"
       id="tspan91">②クリック</tspan></text>
  <rect
     style="fill:none;fill-opacity:1;stroke:#f30000;stroke-width:0.40540451;stroke-miterlimit:4;stroke-dasharray:none;stroke-dashoffset:0;stroke-opacity:1"
     id="rect848-9-2-6"
     width="12.93522"
     height="9.9206896"
     x="0.20270225"
     y="24.113813"
     ry="2.6770132" />
</svg>
